<svg xmlns="http://www.w3.org/2000/svg" height="297mm" id="24" version="1.1" viewBox="0 0 210 297" width="210mm" xml:space="preserve"><defs id="28" /><g id="31" style="display:inline" transform="translate(-0.2077924,-0.35064941)"><rect height="2" id="33" style="display:inline;fill:#000000;stroke-width:0.264583" width="210" x="0.19480543" y="221.66234" /><rect height="2" id="35" style="display:inline;fill:#000000;stroke-width:0.264583" width="210" x="-0.15584393" y="184.14285" /><rect height="2" id="37" style="display:inline;fill:#000000;stroke-width:0.264583" width="210" x="-0.50649261" y="146.97403" /><rect height="2" id="39" style="display:inline;fill:#000000;stroke-width:0.264583" width="210" x="-0.15584493" y="110.85715" /><rect height="2" id="41" style="fill:#000000;stroke-width:0.264583" width="210" x="-0.1452437" y="73.148499" /></g><g id="45" style="display:inline" transform="translate(-41.634673,9.1085402)"><path d="m 86.707408,58.25892 c 8.480045,10.489885 20.114562,17.7874 28.993202,27.892788 -2.31351,-1.750761 1.64354,-9.552935 -3.29827,-5.662834 -6.26183,3.784731 -13.244611,6.895274 -18.375551,12.178163 -3.753467,5.829473 0.479136,12.796693 6.326441,15.069123 3.39023,1.89151 11.20634,5.38933 12.04255,5.85806 -5.25589,-2.55543 3.70086,-12.07067 -2.41413,-10.46898 -9.34442,2.14329 -19.104382,6.77136 -23.342396,15.9163 -3.707466,6.67211 -1.060739,15.99045 6.104205,19.06674 5.016609,2.40407 12.047331,5.63501 16.823231,4.8971 0.99201,-4.24625 4.24481,-10.1495 2.46069,-13.67704 -2.79647,-2.5723 -12.455265,-1.1324 -10.86814,-5.57315 5.14445,-6.34255 14.54714,-4.74342 20.77885,-9.07409 3.16482,-4.03563 3.51409,-11.97676 -2.14899,-13.96268 -4.01058,-1.354407 -9.65565,-6.564811 -12.89904,-4.998407 2.5256,2.250457 -3.55143,8.250697 0.84882,5.038957 6.47802,-4.805457 14.56318,-7.421913 20.33927,-13.144885 3.99798,-5.711254 -0.46132,-12.114065 -5.13503,-15.637991 -7.29473,-7.19529 -15.40824,-13.505271 -22.63394,-20.773617 -5.504021,-0.701862 -8.704432,5.486084 -13.601772,7.056443 z" id="48" style="display:inline;fill:#000000;stroke-width:0.264583" transform="translate(41.847654,94.628476)" /></g></svg>