<svg xmlns="http://www.w3.org/2000/svg" height="297mm" id="3452" version="1.1" viewBox="0 0 210 297" width="210mm" ns2:version="1.2 (dc2aedaf03, 2022-05-15)" xml:space="preserve"><defs id="3456" /><g id="3459" style="display:inline" transform="translate(-0.2077924,-0.35064941)"><rect height="2" id="3461" style="display:inline;fill:#000000;stroke-width:0.264583" width="210" x="0.19480543" y="221.66234" /><rect height="2" id="3463" style="display:inline;fill:#000000;stroke-width:0.264583" width="210" x="-0.15584393" y="184.14285" /><rect height="2" id="3465" style="display:inline;fill:#000000;stroke-width:0.264583" width="210" x="-0.50649261" y="146.97403" /><rect height="2" id="3467" style="display:inline;fill:#000000;stroke-width:0.264583" width="210" x="-0.15584493" y="110.85715" /><rect height="2" id="3469" style="fill:#000000;stroke-width:0.264583" width="210" x="-0.1452437" y="73.148499" /></g><g id="3471" style="display:inline" transform="translate(-112.16296,152.19287)"><g id="3473" style="display:inline" transform="matrix(0.82556588,0,0,0.82071525,185.55766,61.594282)"><rect height="16.129869" id="3475" style="fill:#000000;stroke-width:0.264583" transform="rotate(47.83112)" width="53.999996" x="21.935495" y="-12.470931" /><rect height="16.129869" id="3477" style="fill:#000000;stroke-width:0.264583" transform="rotate(136.45951)" width="53.999996" x="-29.750267" y="-57.600258" /></g><ellipse cx="148.12581" cy="51.27602" id="3479" rx="20.256449" ry="18.99502" style="fill:#000000;stroke-width:0.306809" /></g><g id="3481" transform="translate(49.108179,3.3666963)"><rect height="35.590912" id="3483" style="display:inline;fill:#000000;stroke-width:0.218742" width="7.363636" x="66.35051" y="249.76505" /><rect height="86.539383" id="3487" style="fill:#000000;stroke-width:0.302506" transform="translate(-55.419867,-3.0160469)" width="6.942503" x="54.736542" y="202.53551" /></g><g id="3491" style="display:inline"><rect height="7" id="3494" style="display:inline;fill:#000000;stroke-width:0.264583" width="68.238068" x="54.649323" y="282.47595" /></g></svg>