<svg xmlns="http://www.w3.org/2000/svg" height="297mm" id="3650" version="1.1" viewBox="0 0 210 297" width="210mm" ns2:version="1.2 (dc2aedaf03, 2022-05-15)" xml:space="preserve"><defs id="3654" /><g id="3657" style="display:inline" transform="translate(-0.2077924,-0.35064941)"><rect height="2" id="3659" style="display:inline;fill:#000000;stroke-width:0.264583" width="210" x="0.19480543" y="221.66234" /><rect height="2" id="3661" style="display:inline;fill:#000000;stroke-width:0.264583" width="210" x="-0.15584393" y="184.14285" /><rect height="2" id="3663" style="display:inline;fill:#000000;stroke-width:0.264583" width="210" x="-0.50649261" y="146.97403" /><rect height="2" id="3665" style="display:inline;fill:#000000;stroke-width:0.264583" width="210" x="-0.15584493" y="110.85715" /><rect height="2" id="3667" style="fill:#000000;stroke-width:0.264583" width="210" x="-0.1452437" y="73.148499" /></g><g id="3669" style="display:inline" transform="translate(-112.16296,152.19287)"><g id="3671" style="display:inline" transform="matrix(0.82556588,0,0,0.82071525,185.55766,61.594282)"><rect height="16.129869" id="3673" style="fill:#000000;stroke-width:0.264583" transform="rotate(47.83112)" width="53.999996" x="78.680031" y="-73.319679" /><rect height="16.129869" id="3675" style="fill:#000000;stroke-width:0.264583" transform="rotate(136.45951)" width="53.999996" x="-89.223297" y="-115.78506" /></g><g id="3677" style="display:inline" transform="matrix(0.82556588,0,0,0.82071525,48.377415,61.719718)"><rect height="16.129869" id="3679" style="fill:#000000;stroke-width:0.264583" transform="rotate(47.83112)" width="53.999996" x="78.680031" y="-73.319679" /><rect height="16.129869" id="3681" style="fill:#000000;stroke-width:0.264583" transform="rotate(136.45951)" width="53.999996" x="-89.223297" y="-115.78506" /></g><ellipse cx="148.12581" cy="51.27602" id="3683" rx="20.256449" ry="18.99502" style="fill:#000000;stroke-width:0.306809" /></g><g id="3685" transform="translate(49.108179,3.3666963)"><rect height="35.590912" id="3687" style="display:inline;fill:#000000;stroke-width:0.218742" width="7.363636" x="134.78375" y="250.50888" /><rect height="86.539383" id="3691" style="fill:#000000;stroke-width:0.302506" transform="translate(-55.419867,-3.0160469)" width="6.942503" x="54.736542" y="202.53551" /></g><g id="3693" style="display:inline" transform="translate(1.5080236,41.093643)"><path d="m 81.253879,130.87645 c 4.272905,3.50291 9.041617,6.25537 13.925735,8.79762 5.006476,2.66832 10.548636,3.54519 16.126136,4.0014 3.1728,0.21659 6.36924,0.12575 9.53009,-0.21902 -5.79569,0.32632 0.32024,0.2793 -4.42955,-13.99073 -0.11647,-0.34994 -0.65498,0.33955 -0.97651,0.52022 -1.66446,0.93533 -3.15321,2.02078 -4.65092,3.20086 -2.37143,1.93042 -4.38706,4.25454 -5.92952,6.8985 -0.92736,1.58962 -1.45591,2.86104 -2.20547,4.5163 -1.57658,3.67258 -2.783499,7.48345 -4.003709,11.28407 -0.70027,2.28335 -1.405062,4.55899 -1.892197,6.89855 -0.394179,2.11069 -0.527934,4.25407 -0.577157,6.39655 -0.02164,1.44102 -0.01442,2.88225 -0.0094,4.32336 0,0 14.999913,-0.0518 14.999913,-0.0518 v 0 c -0.005,-1.31657 -0.0114,-2.63323 0.006,-3.94973 0.0243,-1.25769 0.0838,-2.51621 0.28597,-3.75997 0.33404,-1.79758 0.98477,-3.51244 1.46895,-5.27209 1.04978,-3.27042 2.07505,-6.55332 3.40523,-9.72419 0.96938,-2.18417 1.87217,-4.37726 3.84327,-5.86376 0.75231,-0.62828 1.48437,-1.18466 2.33736,-1.67181 0.21651,-0.12365 0.6964,-0.10843 0.65844,-0.35485 -2.27169,-14.74727 1.89649,-14.54009 -4.06275,-14.29918 -2.18165,0.30415 -4.42245,0.25606 -6.61458,0.16546 -3.58112,-0.27068 -7.16601,-0.64474 -10.39364,-2.35866 -1.20655,-0.62564 -3.220781,-1.6513 -4.398812,-2.3368 -2.757128,-1.60437 -5.316906,-3.49596 -7.840978,-5.43881 0,0 -8.601935,12.28848 -8.601935,12.28848 z" id="3695" style="display:inline;fill:#000000;stroke-width:0.264583" /></g><g id="3699" style="display:inline" transform="translate(18.843937,-8.4301821)"><rect height="7" id="3701" style="display:inline;fill:#000000;stroke-width:0.264583" width="138.73817" x="33.811642" y="290.91946" /></g></svg>