<svg xmlns="http://www.w3.org/2000/svg" height="297mm" id="3703" version="1.1" viewBox="0 0 210 297" width="210mm" ns2:version="1.2 (dc2aedaf03, 2022-05-15)" xml:space="preserve"><defs id="3707" /><g id="3710" style="display:inline" transform="translate(-0.2077924,-0.35064941)"><rect height="2" id="3712" style="display:inline;fill:#000000;stroke-width:0.264583" width="210" x="0.19480543" y="221.66234" /><rect height="2" id="3714" style="display:inline;fill:#000000;stroke-width:0.264583" width="210" x="-0.15584393" y="184.14285" /><rect height="2" id="3716" style="display:inline;fill:#000000;stroke-width:0.264583" width="210" x="-0.50649261" y="146.97403" /><rect height="2" id="3718" style="display:inline;fill:#000000;stroke-width:0.264583" width="210" x="-0.15584493" y="110.85715" /><rect height="2" id="3720" style="fill:#000000;stroke-width:0.264583" width="210" x="-0.1452437" y="73.148499" /></g><g id="3722" style="display:inline" transform="translate(-112.16296,152.19287)"><g id="3724" style="display:inline" transform="matrix(0.82556588,0,0,0.82071525,185.55766,61.594282)"><rect height="16.129869" id="3726" style="fill:#000000;stroke-width:0.264583" transform="rotate(47.83112)" width="53.999996" x="78.680031" y="-73.319679" /><rect height="16.129869" id="3728" style="fill:#000000;stroke-width:0.264583" transform="rotate(136.45951)" width="53.999996" x="-89.223297" y="-115.78506" /></g><g id="3730" style="display:inline" transform="matrix(0.82556588,0,0,0.82071525,116.81066,61.223824)"><rect height="16.129869" id="3732" style="fill:#000000;stroke-width:0.264583" transform="rotate(47.83112)" width="53.999996" x="78.680031" y="-73.319679" /><rect height="16.129869" id="3734" style="fill:#000000;stroke-width:0.264583" transform="rotate(136.45951)" width="53.999996" x="-89.223297" y="-115.78506" /></g><g id="3736" style="display:inline" transform="matrix(0.82556588,0,0,0.82071525,48.377415,61.719718)"><rect height="16.129869" id="3738" style="fill:#000000;stroke-width:0.264583" transform="rotate(47.83112)" width="53.999996" x="78.680031" y="-73.319679" /><rect height="16.129869" id="3740" style="fill:#000000;stroke-width:0.264583" transform="rotate(136.45951)" width="53.999996" x="-89.223297" y="-115.78506" /></g><ellipse cx="148.12581" cy="51.27602" id="3742" rx="20.256449" ry="18.99502" style="fill:#000000;stroke-width:0.306809" /></g><g id="3744" transform="translate(49.108179,3.3666963)"><rect height="35.590912" id="3746" style="display:inline;fill:#000000;stroke-width:0.218742" width="7.363636" x="134.78375" y="250.50888" /><rect height="35.590912" id="3748" style="display:inline;fill:#000000;stroke-width:0.218742" width="7.363636" x="66.224335" y="249.8434" /><rect height="86.539383" id="3752" style="fill:#000000;stroke-width:0.302506" transform="translate(-55.419867,-3.0160469)" width="6.942503" x="54.736542" y="202.53551" /></g><g id="3754" style="display:inline" transform="translate(1.5080236,41.093643)" /><g id="3759" style="display:inline" transform="translate(18.843937,-8.4301821)"><rect height="7" id="3761" style="display:inline;fill:#000000;stroke-width:0.264583" width="138.73817" x="33.811642" y="290.91946" /></g></svg>