<svg xmlns="http://www.w3.org/2000/svg" height="297mm" id="3807" version="1.1" viewBox="0 0 210 297" width="210mm" ns2:version="1.2 (dc2aedaf03, 2022-05-15)" xml:space="preserve"><defs id="3811" /><g id="3814" style="display:inline" transform="translate(-0.2077924,-0.35064941)"><rect height="2" id="3816" style="display:inline;fill:#000000;stroke-width:0.264583" width="210" x="0.19480543" y="221.66234" /><rect height="2" id="3818" style="display:inline;fill:#000000;stroke-width:0.264583" width="210" x="-0.15584393" y="184.14285" /><rect height="2" id="3820" style="display:inline;fill:#000000;stroke-width:0.264583" width="210" x="-0.50649261" y="146.97403" /><rect height="2" id="3822" style="display:inline;fill:#000000;stroke-width:0.264583" width="210" x="-0.15584493" y="110.85715" /><rect height="2" id="3824" style="fill:#000000;stroke-width:0.264583" width="210" x="-0.1452437" y="73.148499" /></g><g id="3826" style="display:inline" transform="translate(-112.16296,152.19287)"><g id="3828" style="display:inline" transform="matrix(0.82556588,0,0,0.82071525,116.50466,62.996879)"><rect height="16.129869" id="3830" style="fill:#000000;stroke-width:0.264583" transform="rotate(47.83112)" width="53.999996" x="21.935495" y="-12.470931" /><rect height="16.129869" id="3832" style="fill:#000000;stroke-width:0.264583" transform="rotate(136.45951)" width="53.999996" x="-29.750267" y="-57.600258" /></g><ellipse cx="214.74919" cy="51.626671" id="3834" rx="20.256449" ry="18.99502" style="fill:#000000;stroke-width:0.306809" /></g><g id="3836" transform="translate(49.108179,3.3666963)"><rect height="35.590912" id="3838" style="display:inline;fill:#000000;stroke-width:0.218742" width="7.363636" x="-2.8051977" y="251.06493" /><rect height="86.539383" id="3842" style="fill:#000000;stroke-width:0.302506" width="6.942503" x="66.64135" y="200.07553" /></g><g id="3846" style="display:inline" transform="translate(14.376623,2.5572483)"><rect height="7" id="3849" style="display:inline;fill:#000000;stroke-width:0.264583" width="68.238068" x="35.061546" y="280.49237" /></g></svg>