<svg xmlns="http://www.w3.org/2000/svg" height="297mm" id="3850" version="1.1" viewBox="0 0 210 297" width="210mm" ns2:version="1.2 (dc2aedaf03, 2022-05-15)" xml:space="preserve"><defs id="3854" /><g id="3857" style="display:inline" transform="translate(-0.2077924,-0.35064941)"><rect height="2" id="3859" style="display:inline;fill:#000000;stroke-width:0.264583" width="210" x="0.19480543" y="221.66234" /><rect height="2" id="3861" style="display:inline;fill:#000000;stroke-width:0.264583" width="210" x="-0.15584393" y="184.14285" /><rect height="2" id="3863" style="display:inline;fill:#000000;stroke-width:0.264583" width="210" x="-0.50649261" y="146.97403" /><rect height="2" id="3865" style="display:inline;fill:#000000;stroke-width:0.264583" width="210" x="-0.15584493" y="110.85715" /><rect height="2" id="3867" style="fill:#000000;stroke-width:0.264583" width="210" x="-0.1452437" y="73.148499" /></g><g id="3869" style="display:inline" transform="translate(-112.16296,152.19287)"><g id="3871" style="display:inline" transform="matrix(0.82556588,0,0,0.82071525,185.18585,61.757146)"><rect height="16.129869" id="3873" style="fill:#000000;stroke-width:0.264583" transform="rotate(47.83112)" width="53.999996" x="21.935495" y="-12.470931" /><rect height="16.129869" id="3875" style="fill:#000000;stroke-width:0.264583" transform="rotate(136.45951)" width="53.999996" x="-29.750267" y="-57.600258" /></g><ellipse cx="215.24509" cy="51.626671" id="3877" rx="20.256449" ry="18.99502" style="fill:#000000;stroke-width:0.306809" /></g><g id="3879" transform="translate(49.108179,3.3666963)"><rect height="86.539383" id="3884" style="fill:#000000;stroke-width:0.302506" width="6.942503" x="67.137245" y="199.82759" /></g><g id="3886" style="display:inline" transform="translate(-12.376982,82.996607)"><path d="m 26.457695,88.477592 c 4.272905,3.502911 9.041617,6.255374 13.925735,8.797618 5.006481,2.668322 10.548641,3.54519 16.126132,4.0014 3.172807,0.21659 6.369246,0.12575 9.530091,-0.21902 -5.795688,0.32632 0.320241,0.2793 -4.429546,-13.99073 -0.116475,-0.349936 -0.654981,0.33955 -0.976506,0.520226 -1.664467,0.935331 -3.153214,2.020776 -4.650927,3.200858 -2.371424,1.930416 -4.387059,4.254537 -5.929514,6.898497 -0.927362,1.589619 -1.455917,2.861039 -2.205471,4.516299 -1.576584,3.67258 -2.783502,7.48345 -4.003712,11.28407 -0.70027,2.28335 -1.405062,4.55899 -1.892197,6.89855 -0.394179,2.11069 -0.527934,4.25407 -0.577157,6.39655 -0.02164,1.44102 -0.01442,2.88225 -0.0094,4.32336 0,0 14.999912,-0.0518 14.999912,-0.0518 v 0 c -0.0046,-1.31657 -0.01138,-2.63323 0.0061,-3.94973 0.02426,-1.25769 0.08385,-2.51621 0.28597,-3.75997 0.334039,-1.79758 0.984774,-3.51244 1.468953,-5.27209 1.049777,-3.27042 2.075051,-6.55332 3.405228,-9.72419 0.969377,-2.18417 1.872167,-4.37726 3.843266,-5.86376 0.752319,-0.62828 1.48437,-1.18466 2.337368,-1.67181 0.216504,-0.12365 0.6964,-0.10843 0.65844,-0.35485 -2.271694,-14.74727 1.896491,-14.540085 -4.062751,-14.299179 -2.181649,0.304154 -4.422452,0.256066 -6.614578,0.165457 -3.58112,-0.270674 -7.166017,-0.644734 -10.39364,-2.358655 -1.206559,-0.625644 -3.220786,-1.651304 -4.398817,-2.3368 -2.757128,-1.604369 -5.316906,-3.49596 -7.840978,-5.438809 0,0 -8.601935,12.288478 -8.601935,12.288478 z" id="3888" style="display:inline;fill:#000000;stroke-width:0.264583" /></g><g id="3891" style="display:inline" transform="translate(125.15565,83.304509)"><path d="m 26.457695,88.477592 c 4.272905,3.502911 9.041617,6.255374 13.925735,8.797618 5.006481,2.668322 10.548641,3.54519 16.126132,4.0014 3.172807,0.21659 6.369246,0.12575 9.530091,-0.21902 -5.795688,0.32632 0.320241,0.2793 -4.429546,-13.99073 -0.116475,-0.349936 -0.654981,0.33955 -0.976506,0.520226 -1.664467,0.935331 -3.153214,2.020776 -4.650927,3.200858 -2.371424,1.930416 -4.387059,4.254537 -5.929514,6.898497 -0.927362,1.589619 -1.455917,2.861039 -2.205471,4.516299 -1.576584,3.67258 -2.783502,7.48345 -4.003712,11.28407 -0.70027,2.28335 -1.405062,4.55899 -1.892197,6.89855 -0.394179,2.11069 -0.527934,4.25407 -0.577157,6.39655 -0.02164,1.44102 -0.01442,2.88225 -0.0094,4.32336 0,0 14.999912,-0.0518 14.999912,-0.0518 v 0 c -0.0046,-1.31657 -0.01138,-2.63323 0.0061,-3.94973 0.02426,-1.25769 0.08385,-2.51621 0.28597,-3.75997 0.334039,-1.79758 0.984774,-3.51244 1.468953,-5.27209 1.049777,-3.27042 2.075051,-6.55332 3.405228,-9.72419 0.969377,-2.18417 1.872167,-4.37726 3.843266,-5.86376 0.752319,-0.62828 1.48437,-1.18466 2.337368,-1.67181 0.216504,-0.12365 0.6964,-0.10843 0.65844,-0.35485 -2.271694,-14.74727 1.896491,-14.540085 -4.062751,-14.299179 -2.181649,0.304154 -4.422452,0.256066 -6.614578,0.165457 -3.58112,-0.270674 -7.166017,-0.644734 -10.39364,-2.358655 -1.206559,-0.625644 -3.220786,-1.651304 -4.398817,-2.3368 -2.757128,-1.604369 -5.316906,-3.49596 -7.840978,-5.438809 0,0 -8.601935,12.288478 -8.601935,12.288478 z" id="3893" style="display:inline;fill:#000000;stroke-width:0.264583" /></g><g id="3896" style="display:inline" transform="matrix(1,0,0,-1,54.30029,299.66817)"><path d="m 68.445754,17.006577 c 1.078296,-0.199069 2.174653,-0.461513 3.277463,-0.429566 0.739256,-0.04383 1.316529,0.29444 1.948368,0.610804 0.363847,0.234092 0.769278,0.398772 1.129254,0.639068 0.211334,0.141073 -0.225504,-0.200877 0.120341,0.226111 0.53214,0.857214 0.794589,1.877984 1.098968,2.836576 0.388622,1.389783 0.45938,2.833767 0.512884,4.267312 -0.05195,1.247563 -0.341855,2.47166 -0.517033,3.706579 -0.418102,2.718083 0.278093,4.12379 2.381642,5.850742 1.388874,1.061331 3.022761,1.478023 4.726929,1.659974 1.021839,0.08388 2.047949,0.0715 3.072212,0.06659 0.148323,-7.94e-4 0.296646,-0.0016 0.444968,-0.0026 0,0 -0.04059,-6.99988 -0.04059,-6.99988 v 0 c -0.146055,7.94e-4 -0.292108,0.0016 -0.438163,0.0026 -0.781616,0.0038 -1.564341,0.01561 -2.344944,-0.03224 -0.340469,-0.0285 -0.681577,-0.04967 -1.013336,-0.13295 -0.09288,-0.07332 -0.161261,-0.234905 -0.278646,-0.219953 -0.08949,0.0114 0.09632,0.154278 0.126323,0.239357 0.384318,1.089795 0.190003,0.449681 0.205507,1.419702 0.0047,0.29346 0.07264,-1.240084 0.08981,-0.875903 0.229293,-1.64645 0.632343,-3.278558 0.580091,-4.952614 -0.08223,-2.065505 -0.236252,-4.138543 -0.840201,-6.128606 -0.598408,-1.861301 -1.202359,-3.775866 -2.483215,-5.296793 -1.025953,-1.153045 -2.040789,-1.868563 -3.410727,-2.538234 -1.618708,-0.803741 -3.30399,-1.3951312 -5.140667,-1.3452559 -1.653402,0.040089 -3.293517,0.2598714 -4.904983,0.6382159 0,0 1.697749,6.790998 1.697749,6.790998 z" id="3898" style="display:inline;fill:#000000;stroke-width:0.264583" /></g><g id="3900" style="display:inline" transform="matrix(1,0,0,-1,14.376623,570.54199)" /></svg>