<svg xmlns="http://www.w3.org/2000/svg" height="297mm" id="4140" version="1.1" viewBox="0 0 210 297" width="210mm" ns2:version="1.2 (dc2aedaf03, 2022-05-15)" xml:space="preserve"><defs id="4144" /><g id="4147" style="display:inline" transform="translate(-0.2077924,-0.35064941)"><rect height="2" id="4149" style="display:inline;fill:#000000;stroke-width:0.264583" width="210" x="0.19480543" y="221.66234" /><rect height="2" id="4151" style="display:inline;fill:#000000;stroke-width:0.264583" width="210" x="-0.15584393" y="184.14285" /><rect height="2" id="4153" style="display:inline;fill:#000000;stroke-width:0.264583" width="210" x="-0.50649261" y="146.97403" /><rect height="2" id="4155" style="display:inline;fill:#000000;stroke-width:0.264583" width="210" x="-0.15584493" y="110.85715" /><rect height="2" id="4157" style="fill:#000000;stroke-width:0.264583" width="210" x="-0.1452437" y="73.148499" /></g><g id="4159" style="display:inline" transform="translate(-112.16296,152.19287)"><g id="4161" style="display:inline" transform="matrix(0.82556588,0,0,0.82071525,254.85883,62.500986)"><rect height="16.129869" id="4163" style="fill:#000000;stroke-width:0.264583" transform="rotate(47.83112)" width="53.999996" x="21.935495" y="-12.470931" /><rect height="16.129869" id="4165" style="fill:#000000;stroke-width:0.264583" transform="rotate(136.45951)" width="53.999996" x="-29.750267" y="-57.600258" /></g><g id="4167" style="display:inline" transform="matrix(0.82556588,0,0,0.82071525,185.49185,61.719718)"><rect height="16.129869" id="4169" style="fill:#000000;stroke-width:0.264583" transform="rotate(47.83112)" width="53.999996" x="21.935495" y="-12.470931" /><rect height="16.129869" id="4171" style="fill:#000000;stroke-width:0.264583" transform="rotate(136.45951)" width="53.999996" x="-29.750267" y="-57.600258" /></g><g id="4173" style="display:inline" transform="matrix(0.82556588,0,0,0.82071525,117.0586,62.814206)"><rect height="16.129869" id="4175" style="fill:#000000;stroke-width:0.264583" transform="rotate(47.83112)" width="53.999996" x="21.935495" y="-12.470931" /><rect height="16.129869" id="4177" style="fill:#000000;stroke-width:0.264583" transform="rotate(136.45951)" width="53.999996" x="-29.750267" y="-57.600258" /></g><ellipse cx="215.24509" cy="51.626671" id="4179" rx="20.256449" ry="18.99502" style="fill:#000000;stroke-width:0.306809" /></g><g id="4181" transform="translate(49.108179,3.3666963)"><rect height="35.590912" id="4183" style="display:inline;fill:#000000;stroke-width:0.218742" width="7.363636" x="136.04486" y="250.81697" /><rect height="35.590912" id="4185" style="display:inline;fill:#000000;stroke-width:0.218742" width="7.363636" x="-2.2089086" y="250.76257" /><rect height="86.539383" id="4189" style="fill:#000000;stroke-width:0.302506" width="6.942503" x="67.137245" y="199.82759" /></g><g id="4191" style="display:inline" transform="translate(-12.376982,82.996607)" /><g id="4195" style="display:inline" transform="translate(125.15565,83.304509)" /><g id="4199" style="display:inline" transform="matrix(1,0,0,-1,54.30029,299.66817)" /><g id="4202" style="display:inline" transform="matrix(1,0,0,-1,17.351982,580.2119)"><rect height="7" id="4204" style="display:inline;fill:#000000;stroke-width:0.264583" width="138.73817" x="34.307533" y="290.42358" /></g></svg>