<svg xmlns="http://www.w3.org/2000/svg" height="297mm" id="4397" version="1.1" viewBox="0 0 210 297" width="210mm" ns2:version="1.2 (dc2aedaf03, 2022-05-15)" xml:space="preserve"><defs id="4401" /><g id="4404" style="display:inline" transform="translate(-0.2077924,-0.35064941)"><rect height="2" id="4406" style="display:inline;fill:#000000;stroke-width:0.264583" width="210" x="0.19480543" y="221.66234" /><rect height="2" id="4408" style="display:inline;fill:#000000;stroke-width:0.264583" width="210" x="-0.15584393" y="184.14285" /><rect height="2" id="4410" style="display:inline;fill:#000000;stroke-width:0.264583" width="210" x="-0.50649261" y="146.97403" /><rect height="2" id="4412" style="display:inline;fill:#000000;stroke-width:0.264583" width="210" x="-0.15584493" y="110.85715" /><rect height="2" id="4414" style="fill:#000000;stroke-width:0.264583" width="210" x="-0.1452437" y="73.148499" /></g><g id="4416" style="display:inline" transform="translate(-112.16296,152.19287)"><g id="4418" style="display:inline" transform="matrix(0.82556588,0,0,0.82071525,117.20596,62.295581)"><rect height="16.129869" id="4420" style="fill:#000000;stroke-width:0.264583" transform="rotate(47.83112)" width="53.999996" x="21.935495" y="-12.470931" /><rect height="16.129869" id="4422" style="fill:#000000;stroke-width:0.264583" transform="rotate(136.45951)" width="53.999996" x="-29.750267" y="-57.600258" /></g><g id="4424" style="display:inline" transform="matrix(0.82556588,0,0,0.82071525,185.49185,62.959451)"><rect height="16.129869" id="4426" style="fill:#000000;stroke-width:0.264583" transform="rotate(47.83112)" width="53.999996" x="21.935495" y="-12.470931" /><rect height="16.129869" id="4428" style="fill:#000000;stroke-width:0.264583" transform="rotate(136.45951)" width="53.999996" x="-29.750267" y="-57.600258" /></g><ellipse cx="285.22971" cy="51.626671" id="4430" rx="20.256449" ry="18.99502" style="fill:#000000;stroke-width:0.306809" /></g><g id="4432" transform="translate(49.458828,0.91215085)"><rect height="35.590912" id="4434" style="display:inline;fill:#000000;stroke-width:0.218742" width="7.363636" x="-2.103899" y="252.81818" /><rect height="35.590912" id="4436" style="display:inline;fill:#000000;stroke-width:0.218742" width="7.363636" x="65.873688" y="252.79384" /><rect height="86.539383" id="4440" style="fill:#000000;stroke-width:0.302506" width="6.942503" x="136.62599" y="201.76859" /></g><g id="4442" style="display:inline" transform="translate(56.800101,83.740447)" /><g id="4447" style="display:inline" transform="translate(16.480519,-8.4155844)"><rect height="7" id="4449" style="fill:#000000;stroke-width:0.264583" width="138.73817" x="34.307533" y="290.67154" /></g></svg>