<svg xmlns="http://www.w3.org/2000/svg" height="297mm" id="4557" version="1.1" viewBox="0 0 210 297" width="210mm" ns2:version="1.2 (dc2aedaf03, 2022-05-15)" xml:space="preserve"><defs id="4561" /><g id="4564" style="display:inline" transform="translate(-0.2077924,-0.35064941)"><rect height="2" id="4566" style="display:inline;fill:#000000;stroke-width:0.264583" width="210" x="0.19480543" y="221.66234" /><rect height="2" id="4568" style="display:inline;fill:#000000;stroke-width:0.264583" width="210" x="-0.15584393" y="184.14285" /><rect height="2" id="4570" style="display:inline;fill:#000000;stroke-width:0.264583" width="210" x="-0.50649261" y="146.97403" /><rect height="2" id="4572" style="display:inline;fill:#000000;stroke-width:0.264583" width="210" x="-0.15584493" y="110.85715" /><rect height="2" id="4574" style="fill:#000000;stroke-width:0.264583" width="210" x="-0.1452437" y="73.148499" /></g><g id="4576" style="display:inline" transform="translate(-112.16296,152.19287)"><g id="4578" style="display:inline" transform="matrix(0.82556588,0,0,0.82071525,117.20596,62.295581)"><rect height="16.129869" id="4580" style="fill:#000000;stroke-width:0.264583" transform="rotate(47.83112)" width="53.999996" x="21.935495" y="-12.470931" /><rect height="16.129869" id="4582" style="fill:#000000;stroke-width:0.264583" transform="rotate(136.45951)" width="53.999996" x="-29.750267" y="-57.600258" /></g><g id="4584" style="display:inline" transform="matrix(0.82556588,0,0,0.82071525,185.49185,62.959451)"><rect height="16.129869" id="4586" style="fill:#000000;stroke-width:0.264583" transform="rotate(47.83112)" width="53.999996" x="21.935495" y="-12.470931" /><rect height="16.129869" id="4588" style="fill:#000000;stroke-width:0.264583" transform="rotate(136.45951)" width="53.999996" x="-29.750267" y="-57.600258" /></g><g id="4590" style="display:inline" transform="matrix(0.82556588,0,0,0.82071525,254.66893,62.959451)"><rect height="16.129869" id="4592" style="fill:#000000;stroke-width:0.264583" transform="rotate(47.83112)" width="53.999996" x="21.935495" y="-12.470931" /><rect height="16.129869" id="4594" style="fill:#000000;stroke-width:0.264583" transform="rotate(136.45951)" width="53.999996" x="-30.582722" y="-56.724274" /></g><ellipse cx="285.22971" cy="51.626671" id="4596" rx="20.256449" ry="18.99502" style="fill:#000000;stroke-width:0.306809" /></g><g id="4598" transform="translate(49.458828,0.91215085)"><rect height="35.590912" id="4600" style="display:inline;fill:#000000;stroke-width:0.218742" width="7.363636" x="-2.103899" y="252.81818" /><rect height="35.590912" id="4602" style="display:inline;fill:#000000;stroke-width:0.218742" width="7.363636" x="65.873688" y="252.79384" /><rect height="86.539383" id="4606" style="fill:#000000;stroke-width:0.302506" width="6.942503" x="136.62599" y="201.76859" /></g><g id="4608" style="display:inline" transform="translate(56.800101,83.740447)" /><g id="4613" style="display:inline" transform="translate(16.480519,-8.4155844)"><rect height="7" id="4615" style="fill:#000000;stroke-width:0.264583" width="138.73817" x="34.307533" y="290.67154" /></g></svg>