<svg xmlns="http://www.w3.org/2000/svg" height="297mm" id="5812" version="1.1" viewBox="0 0 210 297" width="210mm" ns2:version="1.2 (dc2aedaf03, 2022-05-15)" xml:space="preserve"><defs id="5816" /><g id="5819" style="display:inline" transform="translate(-0.2077924,-0.35064941)"><rect height="2" id="5821" style="display:inline;fill:#000000;stroke-width:0.264583" width="210" x="0.19480543" y="221.66234" /><rect height="2" id="5823" style="display:inline;fill:#000000;stroke-width:0.264583" width="210" x="-0.15584393" y="184.14285" /><rect height="2" id="5825" style="display:inline;fill:#000000;stroke-width:0.264583" width="210" x="-0.50649261" y="146.97403" /><rect height="2" id="5827" style="display:inline;fill:#000000;stroke-width:0.264583" width="210" x="-0.15584493" y="110.85715" /><rect height="2" id="5829" style="fill:#000000;stroke-width:0.264583" width="210" x="-0.1452437" y="73.148499" /></g><g id="5831" style="display:inline" transform="translate(-249.77329,151.94492)"><g id="5833" style="display:inline" transform="matrix(0.82556588,0,0,0.82071525,254.42099,61.967668)"><rect height="16.129869" id="5835" style="fill:#000000;stroke-width:0.264583" transform="rotate(47.83112)" width="53.999996" x="21.935495" y="-12.470931" /><rect height="16.129869" id="5837" style="fill:#000000;stroke-width:0.264583" transform="rotate(136.45951)" width="53.999996" x="-29.750267" y="-57.600258" /></g><ellipse cx="285.22971" cy="51.626671" id="5839" rx="20.256449" ry="18.99502" style="display:inline;fill:#000000;stroke-width:0.306809" /></g><g id="5841" style="display:inline" transform="translate(-181.58806,152.18538)"><g id="5843" style="display:inline" transform="matrix(0.82556588,0,0,0.82071525,254.42099,61.719718)"><rect height="16.129869" id="5845" style="fill:#000000;stroke-width:0.264583" transform="rotate(47.83112)" width="53.999996" x="21.935495" y="-12.470931" /><rect height="16.129869" id="5847" style="display:inline;fill:#000000;stroke-width:0.264583" transform="rotate(136.45951)" width="53.999996" x="-29.750267" y="-57.600258" /></g><ellipse cx="354.30762" cy="50.925373" id="5849" rx="20.256449" ry="18.99502" style="fill:#000000;stroke-width:0.306809" /></g><g id="5851" transform="translate(-88.151499,1.408044)"><rect height="86.539383" id="5856" style="fill:#000000;stroke-width:0.302506" width="6.942503" x="136.62599" y="201.76859" /></g><g id="5858" transform="translate(-85.809413,18.2384)"><rect height="35.590912" id="5860" style="display:inline;fill:#000000;stroke-width:0.218742" width="7.363636" x="201.04213" y="235.14709" /><rect height="86.539383" id="5864" style="fill:#000000;stroke-width:0.302506" width="6.942503" x="271.84549" y="184.95076" /></g><g id="5868" style="display:inline" transform="translate(18.712037,-7.9196913)"><rect height="7" id="5870" style="display:inline;fill:#000000;stroke-width:0.264583" width="138.73817" x="34.307533" y="290.67154" /></g></svg>