<svg xmlns="http://www.w3.org/2000/svg" height="297mm" id="5997" version="1.1" viewBox="0 0 210 297" width="210mm" ns2:version="1.2 (dc2aedaf03, 2022-05-15)" xml:space="preserve"><defs id="6001" /><g id="6004" style="display:inline" transform="translate(-0.2077924,-0.35064941)"><rect height="2" id="6006" style="display:inline;fill:#000000;stroke-width:0.264583" width="210" x="0.19480543" y="221.66234" /><rect height="2" id="6008" style="display:inline;fill:#000000;stroke-width:0.264583" width="210" x="-0.15584393" y="184.14285" /><rect height="2" id="6010" style="display:inline;fill:#000000;stroke-width:0.264583" width="210" x="-0.50649261" y="146.97403" /><rect height="2" id="6012" style="display:inline;fill:#000000;stroke-width:0.264583" width="210" x="-0.15584493" y="110.85715" /><rect height="2" id="6014" style="fill:#000000;stroke-width:0.264583" width="210" x="-0.1452437" y="73.148499" /></g><g id="6016" style="display:inline" transform="translate(-249.77329,151.94492)"><g id="6018" style="display:inline" transform="matrix(0.82556588,0,0,0.82071525,392.17656,62.463561)"><rect height="16.129869" id="6020" style="fill:#000000;stroke-width:0.264583" transform="rotate(47.83112)" width="53.999996" x="21.935495" y="-12.470931" /><rect height="16.129869" id="6022" style="fill:#000000;stroke-width:0.264583" transform="rotate(136.45951)" width="53.999996" x="-29.750267" y="-57.600258" /></g><g id="6024" style="display:inline" transform="matrix(0.82556588,0,0,0.82071525,254.42099,61.967668)"><rect height="16.129869" id="6026" style="fill:#000000;stroke-width:0.264583" transform="rotate(47.83112)" width="53.999996" x="21.935495" y="-12.470931" /><rect height="16.129869" id="6028" style="fill:#000000;stroke-width:0.264583" transform="rotate(136.45951)" width="53.999996" x="-29.750267" y="-57.600258" /></g><ellipse cx="285.22971" cy="51.626671" id="6030" rx="20.256449" ry="18.99502" style="display:inline;fill:#000000;stroke-width:0.306809" /></g><g id="6032" style="display:inline" transform="translate(-181.58806,152.18538)"><g id="6034" style="display:inline" transform="matrix(0.82556588,0,0,0.82071525,254.42099,61.719718)"><rect height="16.129869" id="6036" style="fill:#000000;stroke-width:0.264583" transform="rotate(47.83112)" width="53.999996" x="21.935495" y="-12.470931" /><rect height="16.129869" id="6038" style="display:inline;fill:#000000;stroke-width:0.264583" transform="rotate(136.45951)" width="53.999996" x="-29.750267" y="-57.600258" /></g><ellipse cx="354.30762" cy="50.925373" id="6040" rx="20.256449" ry="18.99502" style="fill:#000000;stroke-width:0.306809" /></g><g id="6042" transform="translate(-88.151499,1.408044)"><rect height="86.539383" id="6047" style="fill:#000000;stroke-width:0.302506" width="6.942503" x="136.62599" y="201.76859" /></g><g id="6049" transform="translate(-85.809413,18.2384)"><rect height="35.590912" id="6051" style="display:inline;fill:#000000;stroke-width:0.218742" width="7.363636" x="201.04213" y="235.14709" /><rect height="86.539383" id="6055" style="fill:#000000;stroke-width:0.302506" width="6.942503" x="271.84549" y="184.95076" /></g><g id="6059" style="display:inline" transform="translate(18.712037,-7.9196913)"><rect height="7" id="6061" style="display:inline;fill:#000000;stroke-width:0.264583" width="138.73817" x="34.307533" y="290.67154" /></g></svg>