<svg xmlns="http://www.w3.org/2000/svg" height="297mm" id="6262" version="1.1" viewBox="0 0 210 297" width="210mm" ns2:version="1.2 (dc2aedaf03, 2022-05-15)" xml:space="preserve"><defs id="6266" /><g id="6269" style="display:inline" transform="translate(-0.2077924,-0.35064941)"><rect height="2" id="6271" style="display:inline;fill:#000000;stroke-width:0.264583" width="210" x="0.19480543" y="221.66234" /><rect height="2" id="6273" style="display:inline;fill:#000000;stroke-width:0.264583" width="210" x="-0.15584393" y="184.14285" /><rect height="2" id="6275" style="display:inline;fill:#000000;stroke-width:0.264583" width="210" x="-0.50649261" y="146.97403" /><rect height="2" id="6277" style="display:inline;fill:#000000;stroke-width:0.264583" width="210" x="-0.15584493" y="110.85715" /><rect height="2" id="6279" style="fill:#000000;stroke-width:0.264583" width="210" x="-0.1452437" y="73.148499" /></g><g id="6282" style="display:inline" transform="translate(-249.77329,151.94492)"><ellipse cx="353.41498" cy="51.378723" id="6284" rx="20.256449" ry="18.99502" style="display:inline;fill:#000000;stroke-width:0.306809" /></g><g id="6286" style="display:inline" transform="translate(-317.95863,152.18538)"><ellipse cx="353.41498" cy="51.378723" id="6288" rx="20.256449" ry="18.99502" style="display:inline;fill:#000000;stroke-width:0.306809" /></g><g id="6291" style="display:inline" transform="translate(-181.58806,152.18538)"><ellipse cx="354.30762" cy="50.925373" id="6293" rx="20.256449" ry="18.99502" style="fill:#000000;stroke-width:0.306809" /><g id="6295" style="display:inline" transform="matrix(0.82556588,0,0,0.82071525,323.94003,61.721985)"><rect height="16.129869" id="6297" style="fill:#000000;stroke-width:0.264583" transform="rotate(47.83112)" width="53.999996" x="21.935495" y="-12.470931" /><rect height="16.129869" id="6299" style="fill:#000000;stroke-width:0.264583" transform="rotate(136.45951)" width="53.999996" x="-29.750267" y="-57.600258" /></g></g><g id="6301" style="display:inline" transform="translate(-88.151499,1.408044)"><rect height="86.539383" id="6306" style="fill:#000000;stroke-width:0.302506" width="6.942503" x="205.05923" y="201.76859" /></g><g id="6308" style="display:inline" transform="translate(-155.71787,1.6685242)"><rect height="86.539001" id="6313" style="fill:#000000;stroke-width:0.302505" width="6.942503" x="204.55887" y="201.54347" /></g><g id="6315" transform="translate(-85.809413,18.2384)"><rect height="86.539383" id="6320" style="fill:#000000;stroke-width:0.302506" width="6.942503" x="271.84549" y="184.95076" /></g><g id="6322" style="display:inline" transform="translate(4.8439244,35.060143)" /><g id="6327" style="display:inline" transform="translate(18.712041,-7.9196913)"><rect height="7" id="6329" style="display:inline;fill:#000000;stroke-width:0.264583" width="138.73817" x="34.307533" y="290.67154" /></g></svg>