<?xml version="1.0" encoding="UTF-8" standalone="no"?>
<!-- Created with Inkscape (http://www.inkscape.org/) -->

<svg
   width="210mm"
   height="297mm"
   viewBox="0 0 210 297"
   version="1.1"
   id="svg5"
   xmlns="http://www.w3.org/2000/svg"
   xmlns:svg="http://www.w3.org/2000/svg"
   xmlns:rdf="http://www.w3.org/1999/02/22-rdf-syntax-ns#"
   xmlns:cc="http://creativecommons.org/ns#"
   xmlns:dc="http://purl.org/dc/elements/1.1/">
  <title
     id="title940">0_0</title>
  <defs
     id="defs2" />
  <g
     id="layer1"
     style="display:inline">
    <rect
       style="fill:#000000;stroke-width:0.264583"
       id="rect707"
       width="210"
       height="2"
       x="-0.1452437"
       y="73.148499" />
    <rect
       style="fill:#000000;stroke-width:0.264583"
       id="rect707-3"
       width="210"
       height="2"
       x="-0.50649261"
       y="146.97403" />
    <rect
       style="fill:#000000;stroke-width:0.264583"
       id="rect707-3-8"
       width="210"
       height="2"
       x="0.19480543"
       y="221.66234" />
    <rect
       style="fill:#000000;stroke-width:0.264583"
       id="rect707-3-8-4"
       width="210"
       height="2"
       x="-0.15584393"
       y="184.14285" />
    <rect
       style="fill:#000000;stroke-width:0.264583"
       id="rect707-3-8-4-4"
       width="210"
       height="2"
       x="-0.15584493"
       y="110.85715" />
  </g>
  <g
     id="layer2">
    <path
       style="fill:#000000;stroke-width:0.264583"
       id="path936"
       d="m 81.809041,72.158502 c 4.167624,2.34483 7.858448,5.409549 11.513656,8.465301 3.73992,3.143322 6.950273,6.825554 10.242153,10.414124 1.47542,1.63539 3.0245,3.210063 4.42227,4.913977 0.0996,0.114845 0.20008,0.22896 0.29885,0.344535 0.0499,0.0584 0.0789,0.212707 0.14716,0.177361 0.0719,-0.03726 -8e-4,-0.163928 -0.0227,-0.241872 -0.0472,-0.167542 -0.0224,-0.42233 -0.18315,-0.489 -0.15658,-0.06492 -0.30995,0.138819 -0.45667,0.223692 -0.25627,0.148238 -0.50044,0.31646 -0.75066,0.474689 -2.03842,1.234636 -4.23476,2.171226 -6.35422,3.252655 -2.692842,1.318456 -5.298758,2.797006 -7.805092,4.440626 -1.693212,1.12255 -3.396589,2.22766 -4.967896,3.51845 -0.532249,0.37819 -0.918207,0.9037 -1.363686,1.36786 -0.34108,0.35538 -0.736598,0.67459 -1.095124,1.0134 -0.176906,0.22971 -0.567002,0.68071 -0.609584,0.98009 -0.253225,1.78033 0.801597,2.80405 1.97635,3.91046 2.304904,2.04275 5.11647,3.35875 7.858318,4.7007 2.222839,1.0782 4.393644,2.2582 6.591484,3.38556 0.56428,0.28409 1.09525,0.62726 1.63208,0.95876 0.0964,0.0595 0.24022,0.28618 0.28663,0.1828 0.11091,-0.24702 -0.40562,-1.49118 -0.41914,-1.52867 -2.69661,0.92026 -5.437029,1.70927 -8.108675,2.70426 -1.293157,0.51599 -2.557404,1.13134 -3.701241,1.93177 -0.283426,0.19834 -0.580636,0.38798 -0.815175,0.64226 -0.555697,0.60246 -0.654426,1.07034 -0.936342,1.80996 -0.02061,0.37611 -0.110308,0.75478 -0.06182,1.12832 0.384495,2.96202 3.551036,4.93386 5.719479,6.53013 4.313494,2.88566 9.303134,4.46402 14.207344,6.01761 0,0 18.56337,-2.40345 18.56337,-2.40345 v 0 c -4.70282,-1.25576 -9.46031,-2.57709 -13.49297,-5.42425 -1.46804,-1.08077 -1.68986,-1.16152 -2.93908,-2.37297 -0.54356,-0.52712 -1.4789,-1.38561 -1.63822,-2.20542 -0.0243,-0.12499 0.0286,-0.25305 0.0429,-0.37957 1.02249,-1.56404 3.09068,-2.15339 4.70976,-2.85712 1.55177,-0.54437 3.1104,-1.03596 4.68701,-1.50371 0.70402,-0.20887 2.35291,-0.67985 3.0855,-0.95508 0.37714,-0.14169 0.73741,-0.32477 1.10612,-0.48715 0.51574,-1.08777 1.01089,-1.43867 0.56272,-2.58856 -0.0639,-0.16389 -0.26966,-0.22663 -0.41372,-0.32756 -0.61338,-0.42977 -1.31095,-0.70811 -1.9356,-1.12001 -2.38283,-1.13972 -4.79781,-2.21312 -7.19117,-3.33081 -2.51083,-1.21706 -5.07013,-2.44072 -7.25716,-4.19615 -0.27654,-0.23737 -0.89333,-0.78178 -1.22963,-1.02353 -0.0796,-0.0572 -0.15858,-0.14206 -0.25663,-0.14388 -0.047,-7.9e-4 -0.0688,0.157 -0.0256,0.13863 0.23938,-0.1017 0.28907,-0.48554 0.5684,-0.53452 0.74866,-0.76156 1.438,-1.57698 2.29409,-2.22703 1.40084,-1.18324 2.8614,-2.29434 4.3796,-3.32338 2.49442,-1.5651 5.09196,-2.96893 7.76948,-4.19597 2.29601,-1.03274 4.57676,-2.100419 6.69721,-3.469296 0.42097,-0.274802 1.41927,-0.843714 1.70462,-1.331846 0.66626,-1.139764 0.4342,-1.964267 -0.42156,-2.777734 -1.22589,-1.029697 0.26908,0.246444 -1.16396,-1.05823 -1.39763,-1.272445 -2.88741,-2.444557 -4.23675,-3.771167 -3.67895,-3.4695 -7.17856,-7.121527 -10.91862,-10.525971 -2.05067,-1.771926 -4.10272,-3.542435 -6.14202,-5.327457 -0.31929,-0.279477 -2.49047,-2.185842 -2.94163,-2.610607 -0.27103,-0.255172 -0.5224,-0.53046 -0.78359,-0.795692 0,0 -20.427528,1.899682 -20.427528,1.899682 z" />
  </g>
  <metadata
     id="metadata938">
    <rdf:RDF>
      <cc:Work
         rdf:about="">
        <dc:title>0_0</dc:title>
      </cc:Work>
    </rdf:RDF>
  </metadata>
</svg>
