<svg xmlns="http://www.w3.org/2000/svg" height="297mm" id="0" version="1.1" viewBox="0 0 210 297" width="210mm" xml:space="preserve"><defs id="3" /><g id="6" style="display:inline" transform="translate(-0.2077924,-0.35064941)"><rect height="2" id="8" style="display:inline;fill:#000000;stroke-width:0.264583" width="210" x="0.19480543" y="221.66234" /><rect height="2" id="10" style="display:inline;fill:#000000;stroke-width:0.264583" width="210" x="-0.15584393" y="184.14285" /><rect height="2" id="12" style="display:inline;fill:#000000;stroke-width:0.264583" width="210" x="-0.50649261" y="146.97403" /><rect height="2" id="14" style="display:inline;fill:#000000;stroke-width:0.264583" width="210" x="-0.15584493" y="110.85715" /><rect height="2" id="16" style="fill:#000000;stroke-width:0.264583" width="210" x="-0.1452437" y="73.148499" /></g><path d="m 81.322826,54.422599 c 8.480045,10.489885 20.114564,17.7874 28.993204,27.892788 -2.31351,-1.750761 1.64354,-9.552935 -3.29827,-5.662834 -6.26183,3.784731 -13.244613,6.895274 -18.375553,12.178163 -3.753467,5.829473 0.479136,12.796694 6.326441,15.069124 3.39023,1.89151 11.206342,5.38933 12.042552,5.85806 -5.25589,-2.55543 3.70086,-12.070671 -2.41413,-10.468981 -9.344422,2.143291 -19.104384,6.771361 -23.342398,15.916301 -3.707466,6.67211 -1.060739,15.99045 6.104205,19.06674 5.016609,2.40407 12.047331,5.63501 16.823233,4.8971 0.99201,-4.24625 4.24481,-10.1495 2.46069,-13.67704 -2.79647,-2.5723 -12.455267,-1.1324 -10.868142,-5.57315 5.144452,-6.34255 14.547142,-4.74342 20.778852,-9.07409 3.16482,-4.03563 3.51409,-11.976761 -2.14899,-13.962681 -4.01058,-1.354407 -9.65565,-6.564811 -12.89904,-4.998407 2.5256,2.250457 -3.551432,8.250698 0.84882,5.038957 6.47802,-4.805457 14.56318,-7.421913 20.33927,-13.144885 3.99798,-5.711254 -0.46132,-12.114065 -5.13503,-15.637991 -7.29473,-7.19529 -15.40824,-13.505271 -22.633942,-20.773617 -5.504021,-0.701862 -8.704432,5.486084 -13.601772,7.056443 z" id="20" style="fill:#000000;stroke-width:0.264583" /></svg>