<svg xmlns="http://www.w3.org/2000/svg" height="297mm" id="75" version="1.1" viewBox="0 0 210 297" width="210mm" ns2:version="1.2 (dc2aedaf03, 2022-05-15)" xml:space="preserve"><defs id="79" /><g id="82" style="display:inline" transform="translate(-0.2077924,-0.35064941)"><rect height="2" id="84" style="display:inline;fill:#000000;stroke-width:0.264583" width="210" x="0.19480543" y="221.66234" /><rect height="2" id="86" style="display:inline;fill:#000000;stroke-width:0.264583" width="210" x="-0.15584393" y="184.14285" /><rect height="2" id="88" style="display:inline;fill:#000000;stroke-width:0.264583" width="210" x="-0.50649261" y="146.97403" /><rect height="2" id="90" style="display:inline;fill:#000000;stroke-width:0.264583" width="210" x="-0.15584493" y="110.85715" /><rect height="2" id="92" style="fill:#000000;stroke-width:0.264583" width="210" x="-0.1452437" y="73.148499" /></g><g id="94" transform="translate(25.642232,77.153909)"><ellipse cx="148.12581" cy="51.27602" id="97" rx="20.256449" ry="18.99502" style="fill:#000000;stroke-width:0.306809" /></g><g id="99" transform="translate(142.38091,-104.6333)"><rect height="66.201721" id="102" style="fill:#000000;stroke-width:0.264583" transform="translate(-55.419867,-3.0160469)" width="6.942503" x="99.676277" y="166.66063" /></g><g id="105" style="display:inline" transform="translate(-12.167301,11.989747)"><path d="m 26.457695,88.477592 c 4.272905,3.502911 9.041617,6.255374 13.925735,8.797618 5.006481,2.668322 10.548641,3.54519 16.126132,4.0014 3.172807,0.21659 6.369246,0.12575 9.530091,-0.21902 -5.795688,0.32632 0.320241,0.2793 -4.429546,-13.99073 -0.116475,-0.349936 -0.654981,0.33955 -0.976506,0.520226 -1.664467,0.935331 -3.153214,2.020776 -4.650927,3.200858 -2.371424,1.930416 -4.387059,4.254537 -5.929514,6.898497 -0.927362,1.589619 -1.455917,2.861039 -2.205471,4.516299 -1.576584,3.67258 -2.783502,7.48345 -4.003712,11.28407 -0.70027,2.28335 -1.405062,4.55899 -1.892197,6.89855 -0.394179,2.11069 -0.527934,4.25407 -0.577157,6.39655 -0.02164,1.44102 -0.01442,2.88225 -0.0094,4.32336 0,0 14.999912,-0.0518 14.999912,-0.0518 v 0 c -0.0046,-1.31657 -0.01138,-2.63323 0.0061,-3.94973 0.02426,-1.25769 0.08385,-2.51621 0.28597,-3.75997 0.334039,-1.79758 0.984774,-3.51244 1.468953,-5.27209 1.049777,-3.27042 2.075051,-6.55332 3.405228,-9.72419 0.969377,-2.18417 1.872167,-4.37726 3.843266,-5.86376 0.752319,-0.62828 1.48437,-1.18466 2.337368,-1.67181 0.216504,-0.12365 0.6964,-0.10843 0.65844,-0.35485 -2.271694,-14.74727 1.896491,-14.540085 -4.062751,-14.299179 -2.181649,0.304154 -4.422452,0.256066 -6.614578,0.165457 -3.58112,-0.270674 -7.166017,-0.644734 -10.39364,-2.358655 -1.206559,-0.625644 -3.220786,-1.651304 -4.398817,-2.3368 -2.757128,-1.604369 -5.316906,-3.49596 -7.840978,-5.438809 0,0 -8.601935,12.288478 -8.601935,12.288478 z" id="107" style="fill:#000000;stroke-width:0.264583" /></g><g id="110" style="display:inline" transform="translate(56.727718,11.716459)"><path d="m 26.457695,88.477592 c 4.272905,3.502911 9.041617,6.255374 13.925735,8.797618 5.006481,2.668322 10.548641,3.54519 16.126132,4.0014 3.172807,0.21659 6.369246,0.12575 9.530091,-0.21902 -5.795688,0.32632 0.320241,0.2793 -4.429546,-13.99073 -0.116475,-0.349936 -0.654981,0.33955 -0.976506,0.520226 -1.664467,0.935331 -3.153214,2.020776 -4.650927,3.200858 -2.371424,1.930416 -4.387059,4.254537 -5.929514,6.898497 -0.927362,1.589619 -1.455917,2.861039 -2.205471,4.516299 -1.576584,3.67258 -2.783502,7.48345 -4.003712,11.28407 -0.70027,2.28335 -1.405062,4.55899 -1.892197,6.89855 -0.394179,2.11069 -0.527934,4.25407 -0.577157,6.39655 -0.02164,1.44102 -0.01442,2.88225 -0.0094,4.32336 0,0 14.999912,-0.0518 14.999912,-0.0518 v 0 c -0.0046,-1.31657 -0.01138,-2.63323 0.0061,-3.94973 0.02426,-1.25769 0.08385,-2.51621 0.28597,-3.75997 0.334039,-1.79758 0.984774,-3.51244 1.468953,-5.27209 1.049777,-3.27042 2.075051,-6.55332 3.405228,-9.72419 0.969377,-2.18417 1.872167,-4.37726 3.843266,-5.86376 0.752319,-0.62828 1.48437,-1.18466 2.337368,-1.67181 0.216504,-0.12365 0.6964,-0.10843 0.65844,-0.35485 -2.271694,-14.74727 1.896491,-14.540085 -4.062751,-14.299179 -2.181649,0.304154 -4.422452,0.256066 -6.614578,0.165457 -3.58112,-0.270674 -7.166017,-0.644734 -10.39364,-2.358655 -1.206559,-0.625644 -3.220786,-1.651304 -4.398817,-2.3368 -2.757128,-1.604369 -5.316906,-3.49596 -7.840978,-5.438809 0,0 -8.601935,12.288478 -8.601935,12.288478 z" id="112" style="fill:#000000;stroke-width:0.264583" /></g><g id="115" style="display:inline" transform="translate(122.72727,49.090909)"><path d="m 68.693701,17.254524 c 1.078296,-0.199069 2.174653,-0.461513 3.277463,-0.429566 0.739256,-0.04383 1.316529,0.29444 1.948368,0.610804 0.363847,0.234092 0.769278,0.398772 1.129254,0.639068 0.211334,0.141073 -0.225504,-0.200877 0.120341,0.226111 0.53214,0.857214 0.794589,1.877984 1.098968,2.836576 0.388622,1.389783 0.45938,2.833767 0.512884,4.267312 -0.05195,1.247563 -0.341855,2.47166 -0.517033,3.706579 -0.418102,2.718083 0.278093,4.12379 2.381642,5.850742 1.388874,1.061331 3.022761,1.478023 4.726929,1.659974 1.021839,0.08388 2.047949,0.0715 3.072212,0.06659 0.148323,-7.94e-4 0.296646,-0.0016 0.444968,-0.0026 0,0 -0.04059,-6.99988 -0.04059,-6.99988 v 0 c -0.146055,7.94e-4 -0.292108,0.0016 -0.438163,0.0026 -0.781616,0.0038 -1.564341,0.01561 -2.344944,-0.03224 -0.340469,-0.0285 -0.681577,-0.04967 -1.013336,-0.13295 -0.09288,-0.07332 -0.161261,-0.234905 -0.278646,-0.219953 -0.08949,0.0114 0.09632,0.154278 0.126323,0.239357 0.384318,1.089795 0.190003,0.449681 0.205507,1.419702 0.0047,0.29346 0.07264,-1.240084 0.08981,-0.875903 0.229293,-1.64645 0.632343,-3.278558 0.580091,-4.952614 C 83.693519,23.068728 83.539497,20.99569 82.935548,19.005627 82.33714,17.144326 81.733189,15.229761 80.452333,13.708834 79.42638,12.555789 78.411544,11.840271 77.041606,11.1706 75.422898,10.366859 73.737616,9.7754683 71.900939,9.8253436 c -1.653402,0.040089 -3.293517,0.2598714 -4.904983,0.6382164 0,0 1.697749,6.790998 1.697749,6.790998 z" id="117" style="display:inline;fill:#000000;stroke-width:0.264583" /></g></svg>