<svg xmlns="http://www.w3.org/2000/svg" height="297mm" id="272" version="1.1" viewBox="0 0 210 297" width="210mm" ns2:version="1.2 (dc2aedaf03, 2022-05-15)" xml:space="preserve"><defs id="276" /><g id="279" style="display:inline" transform="translate(-0.2077924,-0.35064941)"><rect height="2" id="281" style="display:inline;fill:#000000;stroke-width:0.264583" width="210" x="0.19480543" y="221.66234" /><rect height="2" id="283" style="display:inline;fill:#000000;stroke-width:0.264583" width="210" x="-0.15584393" y="184.14285" /><rect height="2" id="285" style="display:inline;fill:#000000;stroke-width:0.264583" width="210" x="-0.50649261" y="146.97403" /><rect height="2" id="287" style="display:inline;fill:#000000;stroke-width:0.264583" width="210" x="-0.15584493" y="110.85715" /><rect height="2" id="289" style="fill:#000000;stroke-width:0.264583" width="210" x="-0.1452437" y="73.148499" /></g><g id="291" transform="translate(-114.61751,77.504558)"><ellipse cx="148.12581" cy="51.27602" id="294" rx="20.256449" ry="18.99502" style="fill:#000000;stroke-width:0.306809" /></g><g id="296" transform="translate(2.1211699,-104.28265)"><rect height="66.201721" id="299" style="fill:#000000;stroke-width:0.264583" transform="translate(-55.419867,-3.0160469)" width="6.942503" x="99.676277" y="166.66063" /></g><g id="302" transform="translate(-44.333605,78.07865)"><ellipse cx="148.12581" cy="51.27602" id="305" rx="20.256449" ry="18.99502" style="fill:#000000;stroke-width:0.306809" /></g><g id="307" transform="translate(72.405076,-103.70856)"><rect height="66.201721" id="310" style="fill:#000000;stroke-width:0.264583" transform="translate(-55.419867,-3.0160469)" width="6.942503" x="99.676277" y="166.66063" /></g><g id="313" transform="translate(23.692373,78.429299)"><ellipse cx="148.12581" cy="51.27602" id="316" rx="20.256449" ry="18.99502" style="fill:#000000;stroke-width:0.306809" /></g><g id="318" transform="translate(140.43105,-103.35791)"><rect height="66.201721" id="321" style="fill:#000000;stroke-width:0.264583" transform="translate(-55.419867,-3.0160469)" width="6.942503" x="99.676277" y="166.66063" /></g><g id="326" style="display:inline" transform="translate(1.0519481)"><rect height="7" id="328" style="fill:#000000;stroke-width:0.264583" width="138.73817" x="52.190651" y="59.24297" /></g></svg>