<?xml version="1.0" encoding="UTF-8" standalone="no"?>
<!-- Created with Inkscape (http://www.inkscape.org/) -->

<svg
   width="210mm"
   height="297mm"
   viewBox="0 0 210 297"
   version="1.1"
   id="svg5"
   xmlns="http://www.w3.org/2000/svg"
   xmlns:svg="http://www.w3.org/2000/svg"
   xmlns:rdf="http://www.w3.org/1999/02/22-rdf-syntax-ns#"
   xmlns:cc="http://creativecommons.org/ns#">
  <defs
     id="defs2" />
  <g
     id="layer1"
     style="display:inline">
    <rect
       style="fill:#000000;stroke-width:0.264583"
       id="rect707"
       width="210"
       height="2"
       x="-0.1452437"
       y="73.148499" />
    <rect
       style="fill:#000000;stroke-width:0.264583"
       id="rect707-3"
       width="210"
       height="2"
       x="-0.50649261"
       y="146.97403" />
    <rect
       style="fill:#000000;stroke-width:0.264583"
       id="rect707-3-8"
       width="210"
       height="2"
       x="0.19480543"
       y="221.66234" />
    <rect
       style="fill:#000000;stroke-width:0.264583"
       id="rect707-3-8-4"
       width="210"
       height="2"
       x="-0.15584393"
       y="184.14285" />
    <rect
       style="fill:#000000;stroke-width:0.264583"
       id="rect707-3-8-4-4"
       width="210"
       height="2"
       x="-0.15584493"
       y="110.85715" />
  </g>
  <g
     id="layer2">
    <g
       id="g1229">
      <g
         id="g1215">
        <path
           style="fill:#000000;stroke-width:0.264583"
           id="path1006"
           d="m 45.869135,58.004331 c -2.403719,3.082663 -4.939618,6.058011 -7.360259,9.126744 -2.692656,3.60722 -5.437036,7.177148 -8.105481,10.802479 -1.307856,1.747369 -2.638266,3.477705 -3.915595,5.247381 -0.724696,0.686874 -1.192152,1.595525 -1.879338,2.307817 -0.58234,0.52663 -1.145929,1.0921 -1.834968,1.477661 -0.401137,0.313704 -0.826132,0.575297 -1.217713,0.904198 0,0 9.958073,0.914786 9.958073,0.914786 v 0 c 0.405815,-0.281789 0.80985,-0.564591 1.212625,-0.850431 0.660363,-0.533427 1.313175,-1.08567 1.8571,-1.741202 0.615868,-0.80585 1.245624,-1.598811 1.884595,-2.38664 1.28065,-1.76381 2.619748,-3.484567 3.914982,-5.237678 2.675932,-3.608057 5.390808,-7.188118 8.103261,-10.768534 2.442668,-3.065396 4.983903,-6.052137 7.362957,-9.168198 0,0 -9.980239,-0.628383 -9.980239,-0.628383 z" />
        <path
           style="fill:#000000;stroke-width:0.264583"
           id="path1010"
           d="m 21.998095,58.246989 c 2.160302,2.309709 4.318164,4.619596 6.436733,6.968019 2.702584,3.089304 5.321155,6.25072 7.941082,9.410054 1.644539,1.849107 3.017327,3.908565 4.488241,5.891673 0.833991,1.030735 1.66234,2.06456 2.515024,3.079864 0.64648,0.736901 1.073158,1.624523 1.568357,2.462453 0.558284,0.853072 0.974474,1.785361 1.48277,2.66678 0.290716,0.51249 0.143187,0.256416 0.44265,0.768184 0,0 9.983918,-0.566944 9.983918,-0.566944 v 0 c -0.311979,-0.445511 -0.161894,-0.20242 -0.440825,-0.73501 -0.529268,-0.872181 -0.937663,-1.805527 -1.482797,-2.667291 -0.521774,-0.879771 -0.977836,-1.799386 -1.57861,-2.628239 -0.847614,-1.000757 -1.663546,-2.023356 -2.511176,-3.022756 -1.499902,-1.97831 -2.836365,-4.08106 -4.491434,-5.93944 -2.620622,-3.173767 -5.257089,-6.334864 -7.944125,-9.452663 -2.117315,-2.346968 -4.245317,-4.681821 -6.436196,-6.960688 0,0 -9.973612,0.726004 -9.973612,0.726004 z" />
      </g>
      <path
         style="fill:#000000;stroke-width:0.264583"
         id="path1223"
         d="m 55.493507,58.447709 c -0.02434,-3.451355 -0.0092,-6.899534 0.141737,-10.347891 0.239268,-4.82137 0.403603,-9.645936 0.497419,-14.472224 0.139052,-3.476932 -0.151355,-6.946164 -0.398497,-10.410751 -0.09958,-1.477066 -0.262694,-2.949314 -0.13444,-4.427686 0.193781,-0.798046 0.410813,-1.588925 0.603861,-2.387016 0.135049,-0.673558 0.223163,-1.346398 0.401812,-2.00985 0,0 -9.996786,-0.25353 -9.996786,-0.25353 v 0 c -0.166933,0.668256 -0.248833,1.348939 -0.402066,2.020143 -0.215471,0.845525 -0.450659,1.688281 -0.606473,2.54695 -0.123195,1.530521 0.02236,3.053663 0.134345,4.58223 0.24519,3.434417 0.537594,6.873291 0.398262,10.320047 -0.09392,4.818266 -0.258636,9.634781 -0.497343,14.448147 -0.150159,3.462891 -0.166537,6.925577 -0.141832,10.391431 0,0 10.000001,0 10.000001,0 z" />
    </g>
  </g>
  <metadata
     id="metadata938">
    <rdf:RDF>
      <cc:Work
         rdf:about="" />
    </rdf:RDF>
  </metadata>
</svg>
