<svg xmlns="http://www.w3.org/2000/svg" height="297mm" id="497" version="1.1" viewBox="0 0 210 297" width="210mm" ns2:version="1.2 (dc2aedaf03, 2022-05-15)" xml:space="preserve"><defs id="501" /><g id="504" style="display:inline" transform="translate(-0.2077924,-0.35064941)"><rect height="2" id="506" style="display:inline;fill:#000000;stroke-width:0.264583" width="210" x="0.19480543" y="221.66234" /><rect height="2" id="508" style="display:inline;fill:#000000;stroke-width:0.264583" width="210" x="-0.15584393" y="184.14285" /><rect height="2" id="510" style="display:inline;fill:#000000;stroke-width:0.264583" width="210" x="-0.50649261" y="146.97403" /><rect height="2" id="512" style="display:inline;fill:#000000;stroke-width:0.264583" width="210" x="-0.15584493" y="110.85715" /><rect height="2" id="514" style="fill:#000000;stroke-width:0.264583" width="210" x="-0.1452437" y="73.148499" /></g><g id="516" transform="translate(-104.44868,157.10196)"><g id="518" transform="translate(104.41893,-111.63773)"><rect height="16.129869" id="520" style="fill:#000000;stroke-width:0.264583" transform="rotate(47.83112)" width="53.999996" x="17.095549" y="-14.962328" /><rect height="16.129869" id="522" style="fill:#000000;stroke-width:0.264583" transform="rotate(136.45951)" width="53.999996" x="-32.356804" y="-52.821335" /></g><ellipse cx="144.40076" cy="-27.985292" id="524" rx="20.256449" ry="18.99502" style="fill:#000000;stroke-width:0.306809" /><ellipse cx="209.75284" cy="-28.249876" id="526" rx="20.256449" ry="18.99502" style="fill:#000000;stroke-width:0.306809" /></g><g id="528" transform="translate(92.238049,4.067995)"><rect height="52.07143" id="530" style="fill:#000000;stroke-width:0.256915" width="6.9429998" x="-38.922081" y="5.0600572" /><rect height="122.30562" id="533" style="display:inline;fill:#000000;stroke-width:0.359625" width="6.942503" x="25.999033" y="5.0941653" /><rect height="86.539383" id="535" style="display:inline;fill:#000000;stroke-width:0.302506" width="6.942503" x="-39.054565" y="40.337421" /></g><g id="537" style="display:inline" transform="translate(190.82956,-28.400082)"><path d="m -40.487869,88.229645 c 4.272905,3.502911 9.041617,6.255374 13.925735,8.797618 5.006481,2.668322 10.548641,3.545187 16.126132,4.001397 3.172807,0.21659 6.369246,0.12575 9.53009097,-0.21902 -5.79568797,0.32632 0.320241,0.2793 -4.42954597,-13.990727 -0.116475,-0.349936 -0.654981,0.33955 -0.976506,0.520226 -1.664467,0.935331 -3.153214,2.020776 -4.650927,3.200858 -2.371424,1.930416 -4.387059,4.254537 -5.929514,6.898497 -0.927362,1.589619 -1.455917,2.861036 -2.205471,4.516296 -1.576584,3.67258 -2.783502,7.48345 -4.003712,11.28407 -0.70027,2.28335 -1.405062,4.55899 -1.892197,6.89855 -0.394179,2.11069 -0.527934,4.25407 -0.577157,6.39655 -0.02164,1.44102 -0.01442,2.88225 -0.0094,4.32336 0,0 14.999912,-0.0518 14.999912,-0.0518 v 0 c -0.0046,-1.31657 -0.01138,-2.63323 0.0061,-3.94973 0.02426,-1.25769 0.08385,-2.51621 0.28597,-3.75997 0.334039,-1.79758 0.984774,-3.51244 1.468953,-5.27209 1.049777,-3.27042 2.075051,-6.55332 3.405228,-9.72419 0.969377,-2.18417 1.872167,-4.37726 3.843266,-5.86376 0.75231897,-0.62828 1.48436997,-1.18466 2.33736797,-1.67181 0.216504,-0.12365 0.69640003,-0.10843 0.65844003,-0.35485 -2.27169403,-14.747267 1.896491,-14.540082 -4.062751,-14.299176 -2.181649,0.304154 -4.422452,0.256066 -6.614578,0.165457 -3.58112,-0.270674 -7.166017,-0.644734 -10.39364,-2.358655 -1.206559,-0.625644 -3.220786,-1.651304 -4.398817,-2.3368 -2.757128,-1.604369 -5.316906,-3.49596 -7.840978,-5.438809 0,0 -8.601935,12.288478 -8.601935,12.288478 z" id="539" style="display:inline;fill:#000000;stroke-width:0.264583" /></g><g id="543" style="display:inline" transform="translate(22.502277,-282.72893)"><rect height="7" id="546" style="display:inline;fill:#000000;stroke-width:0.264583" width="68.238068" x="33.537628" y="291.92935" /></g></svg>