<svg xmlns="http://www.w3.org/2000/svg" height="297mm" id="647" version="1.1" viewBox="0 0 210 297" width="210mm" ns2:version="1.2 (dc2aedaf03, 2022-05-15)" xml:space="preserve"><defs id="651" /><g id="654" style="display:inline" transform="translate(-0.2077924,-0.35064941)"><rect height="2" id="656" style="display:inline;fill:#000000;stroke-width:0.264583" width="210" x="0.19480543" y="221.66234" /><rect height="2" id="658" style="display:inline;fill:#000000;stroke-width:0.264583" width="210" x="-0.15584393" y="184.14285" /><rect height="2" id="660" style="display:inline;fill:#000000;stroke-width:0.264583" width="210" x="-0.50649261" y="146.97403" /><rect height="2" id="662" style="display:inline;fill:#000000;stroke-width:0.264583" width="210" x="-0.15584493" y="110.85715" /><rect height="2" id="664" style="fill:#000000;stroke-width:0.264583" width="210" x="-0.1452437" y="73.148499" /></g><g id="666" transform="translate(-104.44868,157.10196)"><g id="668" transform="translate(104.41893,-111.63773)"><rect height="16.129869" id="670" style="fill:#000000;stroke-width:0.264583" transform="rotate(47.83112)" width="53.999996" x="17.095549" y="-14.962328" /><rect height="16.129869" id="672" style="fill:#000000;stroke-width:0.264583" transform="rotate(136.45951)" width="53.999996" x="-32.356804" y="-52.821335" /></g><ellipse cx="279.14481" cy="-27.372137" id="674" rx="20.256449" ry="18.99502" style="fill:#000000;stroke-width:0.306809" /><ellipse cx="144.40076" cy="-27.985292" id="676" rx="20.256449" ry="18.99502" style="fill:#000000;stroke-width:0.306809" /><ellipse cx="209.75284" cy="-28.249876" id="678" rx="20.256449" ry="18.99502" style="fill:#000000;stroke-width:0.306809" /></g><g id="680" transform="translate(92.238049,4.067995)"><rect height="52.07143" id="682" style="fill:#000000;stroke-width:0.256915" width="6.9429998" x="-38.922081" y="5.0600572" /><rect height="122.30562" id="685" style="display:inline;fill:#000000;stroke-width:0.359625" width="6.942503" x="95.972031" y="5.4049635" /><rect height="122.30562" id="687" style="display:inline;fill:#000000;stroke-width:0.359625" width="6.942503" x="25.999033" y="6.2166972" /><rect height="86.539383" id="689" style="display:inline;fill:#000000;stroke-width:0.302506" width="6.942503" x="-39.054565" y="40.337421" /></g><g id="691" style="display:inline" transform="translate(123.36081,-28.929249)" /><g id="696" style="display:inline" transform="translate(22.315188,-281.41931)"><rect height="7" id="698" style="display:inline;fill:#000000;stroke-width:0.264583" width="138.73817" x="34.307533" y="290.67154" /></g></svg>