<svg xmlns="http://www.w3.org/2000/svg" height="297mm" id="794" version="1.1" viewBox="0 0 210 297" width="210mm" ns2:version="1.2 (dc2aedaf03, 2022-05-15)" xml:space="preserve"><defs id="798" /><g id="801" style="display:inline" transform="translate(-0.2077924,-0.35064941)"><rect height="2" id="803" style="display:inline;fill:#000000;stroke-width:0.264583" width="210" x="0.19480543" y="221.66234" /><rect height="2" id="805" style="display:inline;fill:#000000;stroke-width:0.264583" width="210" x="-0.15584393" y="184.14285" /><rect height="2" id="807" style="display:inline;fill:#000000;stroke-width:0.264583" width="210" x="-0.50649261" y="146.97403" /><rect height="2" id="809" style="display:inline;fill:#000000;stroke-width:0.264583" width="210" x="-0.15584493" y="110.85715" /><rect height="2" id="811" style="fill:#000000;stroke-width:0.264583" width="210" x="-0.1452437" y="73.148499" /></g><g id="813" transform="translate(-133.20193,169.72534)"><g id="815" transform="translate(201.5488,-124.61176)"><rect height="16.129869" id="817" style="fill:#000000;stroke-width:0.264583" transform="rotate(47.83112)" width="53.999996" x="17.095549" y="-14.962328" /><rect height="16.129869" id="819" style="fill:#000000;stroke-width:0.264583" transform="rotate(136.45951)" width="53.999996" x="-32.356804" y="-52.821335" /></g><ellipse cx="241.04788" cy="-40.594109" id="821" rx="20.256449" ry="18.99502" style="fill:#000000;stroke-width:0.306809" /></g><g id="823" transform="translate(58.575711,-3.9969401)"><rect height="52.07143" id="825" style="fill:#000000;stroke-width:0.256915" width="6.9429998" x="62.415581" y="13.475641" /><rect height="86.539383" id="828" style="fill:#000000;stroke-width:0.302506" width="6.942503" x="62.433559" y="45.233746" /></g><g id="831" style="display:inline" transform="translate(126.33919,-28.685577)"><path d="m 26.457695,88.477592 c 4.272905,3.502911 9.041617,6.255374 13.925735,8.797618 5.006481,2.668322 10.548641,3.54519 16.126132,4.0014 3.172807,0.21659 6.369246,0.12575 9.530091,-0.21902 -5.795688,0.32632 0.320241,0.2793 -4.429546,-13.99073 -0.116475,-0.349936 -0.654981,0.33955 -0.976506,0.520226 -1.664467,0.935331 -3.153214,2.020776 -4.650927,3.200858 -2.371424,1.930416 -4.387059,4.254537 -5.929514,6.898497 -0.927362,1.589619 -1.455917,2.861039 -2.205471,4.516299 -1.576584,3.67258 -2.783502,7.48345 -4.003712,11.28407 -0.70027,2.28335 -1.405062,4.55899 -1.892197,6.89855 -0.394179,2.11069 -0.527934,4.25407 -0.577157,6.39655 -0.02164,1.44102 -0.01442,2.88225 -0.0094,4.32336 0,0 14.999912,-0.0518 14.999912,-0.0518 v 0 c -0.0046,-1.31657 -0.01138,-2.63323 0.0061,-3.94973 0.02426,-1.25769 0.08385,-2.51621 0.28597,-3.75997 0.334039,-1.79758 0.984774,-3.51244 1.468953,-5.27209 1.049777,-3.27042 2.075051,-6.55332 3.405228,-9.72419 0.969377,-2.18417 1.872167,-4.37726 3.843266,-5.86376 0.752319,-0.62828 1.48437,-1.18466 2.337368,-1.67181 0.216504,-0.12365 0.6964,-0.10843 0.65844,-0.35485 -2.271694,-14.74727 1.896491,-14.540085 -4.062751,-14.299179 -2.181649,0.304154 -4.422452,0.256066 -6.614578,0.165457 -3.58112,-0.270674 -7.166017,-0.644734 -10.39364,-2.358655 -1.206559,-0.625644 -3.220786,-1.651304 -4.398817,-2.3368 -2.757128,-1.604369 -5.316906,-3.49596 -7.840978,-5.438809 0,0 -8.601935,12.288478 -8.601935,12.288478 z" id="833" style="display:inline;fill:#000000;stroke-width:0.264583" /></g><g id="836" style="display:inline" transform="translate(-11.298259,-29.309513)"><path d="m 26.457695,88.477592 c 4.272905,3.502911 9.041617,6.255374 13.925735,8.797618 5.006481,2.668322 10.548641,3.54519 16.126132,4.0014 3.172807,0.21659 6.369246,0.12575 9.530091,-0.21902 -5.795688,0.32632 0.320241,0.2793 -4.429546,-13.99073 -0.116475,-0.349936 -0.654981,0.33955 -0.976506,0.520226 -1.664467,0.935331 -3.153214,2.020776 -4.650927,3.200858 -2.371424,1.930416 -4.387059,4.254537 -5.929514,6.898497 -0.927362,1.589619 -1.455917,2.861039 -2.205471,4.516299 -1.576584,3.67258 -2.783502,7.48345 -4.003712,11.28407 -0.70027,2.28335 -1.405062,4.55899 -1.892197,6.89855 -0.394179,2.11069 -0.527934,4.25407 -0.577157,6.39655 -0.02164,1.44102 -0.01442,2.88225 -0.0094,4.32336 0,0 14.999912,-0.0518 14.999912,-0.0518 v 0 c -0.0046,-1.31657 -0.01138,-2.63323 0.0061,-3.94973 0.02426,-1.25769 0.08385,-2.51621 0.28597,-3.75997 0.334039,-1.79758 0.984774,-3.51244 1.468953,-5.27209 1.049777,-3.27042 2.075051,-6.55332 3.405228,-9.72419 0.969377,-2.18417 1.872167,-4.37726 3.843266,-5.86376 0.752319,-0.62828 1.48437,-1.18466 2.337368,-1.67181 0.216504,-0.12365 0.6964,-0.10843 0.65844,-0.35485 -2.271694,-14.74727 1.896491,-14.540085 -4.062751,-14.299179 -2.181649,0.304154 -4.422452,0.256066 -6.614578,0.165457 -3.58112,-0.270674 -7.166017,-0.644734 -10.39364,-2.358655 -1.206559,-0.625644 -3.220786,-1.651304 -4.398817,-2.3368 -2.757128,-1.604369 -5.316906,-3.49596 -7.840978,-5.438809 0,0 -8.601935,12.288478 -8.601935,12.288478 z" id="838" style="display:inline;fill:#000000;stroke-width:0.264583" /></g><g id="841" style="display:inline"><path d="m 126.2002,16.553225 c 1.07829,-0.199069 2.17465,-0.461513 3.27746,-0.429566 0.73925,-0.04383 1.31653,0.29444 1.94837,0.610804 0.36384,0.234092 0.76927,0.398772 1.12925,0.639068 0.21133,0.141073 -0.2255,-0.200877 0.12034,0.226111 0.53214,0.857214 0.79459,1.877984 1.09897,2.836576 0.38862,1.389783 0.45938,2.833767 0.51288,4.267312 -0.052,1.247563 -0.34185,2.47166 -0.51703,3.706579 -0.4181,2.718083 0.27809,4.12379 2.38164,5.850742 1.38888,1.061331 3.02276,1.478023 4.72693,1.659974 1.02184,0.08388 2.04795,0.0715 3.07221,0.06659 0.14833,-7.94e-4 0.29665,-0.0016 0.44497,-0.0026 0,0 -0.0406,-6.99988 -0.0406,-6.99988 v 0 c -0.14605,7.94e-4 -0.29211,0.0016 -0.43816,0.0026 -0.78162,0.0038 -1.56434,0.01561 -2.34495,-0.03224 -0.34046,-0.0285 -0.68157,-0.04967 -1.01333,-0.13295 -0.0929,-0.07332 -0.16126,-0.234905 -0.27865,-0.219953 -0.0895,0.0114 0.0963,0.154278 0.12633,0.239357 0.38431,1.089795 0.19,0.449681 0.2055,1.419702 0.005,0.29346 0.0726,-1.240084 0.0898,-0.875903 0.2293,-1.64645 0.63235,-3.278558 0.58009,-4.952614 -0.0822,-2.065505 -0.23625,-4.138543 -0.8402,-6.128606 -0.59841,-1.861301 -1.20236,-3.775866 -2.48321,-5.296793 -1.02596,-1.153045 -2.04079,-1.868563 -3.41073,-2.538234 -1.61871,-0.8037407 -3.30399,-1.3951314 -5.14067,-1.3452561 -1.6534,0.040089 -3.29351,0.2598714 -4.90498,0.6382164 0,0 1.69775,6.7909977 1.69775,6.7909977 z" id="843" style="display:inline;fill:#000000;stroke-width:0.264583" /></g></svg>