<svg xmlns="http://www.w3.org/2000/svg" height="297mm" id="1037" version="1.1" viewBox="0 0 210 297" width="210mm" ns2:version="1.2 (dc2aedaf03, 2022-05-15)" xml:space="preserve"><defs id="1041" /><g id="1044" style="display:inline" transform="translate(-0.2077924,-0.35064941)"><rect height="2" id="1046" style="display:inline;fill:#000000;stroke-width:0.264583" width="210" x="0.19480543" y="221.66234" /><rect height="2" id="1048" style="display:inline;fill:#000000;stroke-width:0.264583" width="210" x="-0.15584393" y="184.14285" /><rect height="2" id="1050" style="display:inline;fill:#000000;stroke-width:0.264583" width="210" x="-0.50649261" y="146.97403" /><rect height="2" id="1052" style="display:inline;fill:#000000;stroke-width:0.264583" width="210" x="-0.15584493" y="110.85715" /><rect height="2" id="1054" style="fill:#000000;stroke-width:0.264583" width="210" x="-0.1452437" y="73.148499" /></g><g id="1056" transform="translate(-133.20193,169.72534)"><g id="1058" transform="translate(201.5488,-124.61176)"><rect height="16.129869" id="1060" style="fill:#000000;stroke-width:0.264583" transform="rotate(47.83112)" width="53.999996" x="17.095549" y="-14.962328" /><rect height="16.129869" id="1062" style="fill:#000000;stroke-width:0.264583" transform="rotate(136.45951)" width="53.999996" x="-32.356804" y="-52.821335" /></g><ellipse cx="168.11282" cy="-40.243458" id="1064" rx="20.256449" ry="18.99502" style="fill:#000000;stroke-width:0.306809" /><ellipse cx="241.05867" cy="-40.545193" id="1066" rx="20.256449" ry="18.99502" style="fill:#000000;stroke-width:0.306809" /><ellipse cx="306.26862" cy="-40.049297" id="1068" rx="20.256449" ry="18.99502" style="fill:#000000;stroke-width:0.306809" /></g><g id="1070" transform="translate(58.575711,-3.9969401)"><rect height="52.07143" id="1072" style="fill:#000000;stroke-width:0.256915" width="6.9429998" x="62.415581" y="13.475641" /><rect height="120.29019" id="1075" style="fill:#000000;stroke-width:0.35665" width="6.942503" x="-10.150857" y="13.586832" /><rect height="120.29019" id="1077" style="fill:#000000;stroke-width:0.35665" width="6.942503" x="128.12804" y="13.524822" /><rect height="86.539383" id="1079" style="display:inline;fill:#000000;stroke-width:0.302506" width="6.942503" x="62.422203" y="46.516754" /></g><g id="1083" style="display:inline" transform="translate(18.843937,-281.17138)"><rect height="7" id="1085" style="display:inline;fill:#000000;stroke-width:0.264583" width="138.73817" x="34.307533" y="290.67154" /></g></svg>