<svg xmlns="http://www.w3.org/2000/svg" height="297mm" id="1273" version="1.1" viewBox="0 0 210 297" width="210mm" ns2:version="1.2 (dc2aedaf03, 2022-05-15)" xml:space="preserve"><defs id="1277" /><g id="1280" style="display:inline" transform="translate(-0.2077924,-0.35064941)"><rect height="2" id="1282" style="display:inline;fill:#000000;stroke-width:0.264583" width="210" x="0.19480543" y="221.66234" /><rect height="2" id="1284" style="display:inline;fill:#000000;stroke-width:0.264583" width="210" x="-0.15584393" y="184.14285" /><rect height="2" id="1286" style="display:inline;fill:#000000;stroke-width:0.264583" width="210" x="-0.50649261" y="146.97403" /><rect height="2" id="1288" style="display:inline;fill:#000000;stroke-width:0.264583" width="210" x="-0.15584493" y="110.85715" /><rect height="2" id="1290" style="fill:#000000;stroke-width:0.264583" width="210" x="-0.1452437" y="73.148499" /></g><g id="1292" style="display:inline" transform="translate(32.304574,151.84222)"><g id="1294" style="display:inline" transform="translate(104.41893,-111.63773)"><rect height="16.129869" id="1296" style="fill:#000000;stroke-width:0.264583" transform="rotate(47.83112)" width="53.999996" x="21.935495" y="-12.470931" /><rect height="16.129869" id="1298" style="fill:#000000;stroke-width:0.264583" transform="rotate(136.45951)" width="53.999996" x="-29.750267" y="-57.600258" /></g><ellipse cx="2.9569776" cy="-23.061642" id="1300" rx="20.256449" ry="18.99502" style="display:inline;fill:#000000;stroke-width:0.306809" /><ellipse cx="71.83828" cy="-22.45261" id="1302" rx="20.256449" ry="18.99502" style="display:inline;fill:#000000;stroke-width:0.306809" /></g><g id="1304" style="display:inline" transform="matrix(1,0,0,1.0033417,125.54974,-1.0492307)"><rect height="52.07143" id="1306" style="fill:#000000;stroke-width:0.264583" width="7.363636" x="64.519478" y="9.818182" /><rect height="119.51063" id="1309" style="display:inline;fill:#000000;stroke-width:0.355489" width="6.942503" x="-77.124886" y="9.7780981" /><rect height="119.51063" id="1311" style="display:inline;fill:#000000;stroke-width:0.355489" width="6.942503" x="-8.0469666" y="13.283608" /></g><g id="1315" style="display:inline" transform="translate(20.337662,-281.96462)"><rect height="7" id="1317" style="display:inline;fill:#000000;stroke-width:0.264583" width="138.73817" x="34.307533" y="290.67154" /></g></svg>