<svg xmlns="http://www.w3.org/2000/svg" height="297mm" id="1417" version="1.1" viewBox="0 0 210 297" width="210mm" ns2:version="1.2 (dc2aedaf03, 2022-05-15)" xml:space="preserve"><defs id="1421" /><g id="1424" style="display:inline" transform="translate(-0.2077924,-0.35064941)"><rect height="2" id="1426" style="display:inline;fill:#000000;stroke-width:0.264583" width="210" x="0.19480543" y="221.66234" /><rect height="2" id="1428" style="display:inline;fill:#000000;stroke-width:0.264583" width="210" x="-0.15584393" y="184.14285" /><rect height="2" id="1430" style="display:inline;fill:#000000;stroke-width:0.264583" width="210" x="-0.50649261" y="146.97403" /><rect height="2" id="1432" style="display:inline;fill:#000000;stroke-width:0.264583" width="210" x="-0.15584493" y="110.85715" /><rect height="2" id="1434" style="fill:#000000;stroke-width:0.264583" width="210" x="-0.1452437" y="73.148499" /></g><g id="1436" style="display:inline" transform="translate(32.304574,151.84222)"><g id="1438" style="display:inline" transform="translate(104.41893,-111.63773)"><rect height="16.129869" id="1440" style="fill:#000000;stroke-width:0.264583" transform="rotate(47.83112)" width="53.999996" x="21.935495" y="-12.470931" /><rect height="16.129869" id="1442" style="fill:#000000;stroke-width:0.264583" transform="rotate(136.45951)" width="53.999996" x="-29.750267" y="-57.600258" /></g><ellipse cx="2.9569776" cy="-23.061642" id="1444" rx="20.256449" ry="18.99502" style="display:inline;fill:#000000;stroke-width:0.306809" /><ellipse cx="71.83828" cy="-22.45261" id="1446" rx="20.256449" ry="18.99502" style="display:inline;fill:#000000;stroke-width:0.306809" /><ellipse cx="144.77335" cy="-22.101959" id="1448" rx="20.256449" ry="18.99502" style="display:inline;fill:#000000;stroke-width:0.306809" /></g><g id="1450" style="display:inline" transform="matrix(1,0,0,1.0033417,125.54974,-1.0492307)"><rect height="52.07143" id="1452" style="fill:#000000;stroke-width:0.264583" width="7.363636" x="64.519478" y="9.818182" /><rect height="119.51063" id="1455" style="display:inline;fill:#000000;stroke-width:0.355489" width="6.942503" x="-77.124886" y="9.7780981" /><rect height="119.51063" id="1457" style="display:inline;fill:#000000;stroke-width:0.355489" width="6.942503" x="-8.0469666" y="13.283608" /><rect height="86.539383" id="1459" style="display:inline;fill:#000000;stroke-width:0.302506" width="6.942503" x="64.888107" y="45.929203" /></g><g id="1462" style="display:inline" transform="translate(20.337662,-281.96462)"><rect height="7" id="1464" style="display:inline;fill:#000000;stroke-width:0.264583" width="138.73817" x="34.307533" y="290.67154" /></g></svg>