<svg xmlns="http://www.w3.org/2000/svg" height="297mm" id="1647" version="1.1" viewBox="0 0 210 297" width="210mm" ns2:version="1.2 (dc2aedaf03, 2022-05-15)" xml:space="preserve"><defs id="1651" /><g id="1654" style="display:inline" transform="translate(-0.2077924,-0.35064941)"><rect height="2" id="1656" style="display:inline;fill:#000000;stroke-width:0.264583" width="210" x="0.19480543" y="221.66234" /><rect height="2" id="1658" style="display:inline;fill:#000000;stroke-width:0.264583" width="210" x="-0.15584393" y="184.14285" /><rect height="2" id="1660" style="display:inline;fill:#000000;stroke-width:0.264583" width="210" x="-0.50649261" y="146.97403" /><rect height="2" id="1662" style="display:inline;fill:#000000;stroke-width:0.264583" width="210" x="-0.15584493" y="110.85715" /><rect height="2" id="1664" style="fill:#000000;stroke-width:0.264583" width="210" x="-0.1452437" y="73.148499" /></g><g id="1666" style="display:inline" transform="translate(-105.50062,151.14092)"><g id="1668" style="display:inline" transform="translate(104.41893,-111.63773)"><rect height="16.129869" id="1670" style="fill:#000000;stroke-width:0.264583" transform="rotate(47.83112)" width="53.999996" x="21.935495" y="-12.470931" /><rect height="16.129869" id="1672" style="fill:#000000;stroke-width:0.264583" transform="rotate(136.45951)" width="53.999996" x="-29.750267" y="-57.600258" /></g></g><g id="1675" style="display:inline" transform="translate(-11.904815,-1.1917458)"><rect height="52.07143" id="1677" style="fill:#000000;stroke-width:0.264583" width="7.363636" x="64.519478" y="9.818182" /><rect height="120.01216" id="1681" style="display:inline;fill:#000000;stroke-width:0.356238" width="6.942503" x="198.60855" y="10.486721" /></g><g id="1683" style="display:inline" transform="translate(123.70175,-30.010813)" /><g id="1688" style="display:inline" transform="translate(-37.483662,151.10943)"><g id="1690" style="display:inline" transform="translate(104.41893,-111.63773)"><rect height="16.129869" id="1692" style="fill:#000000;stroke-width:0.264583" transform="rotate(47.83112)" width="53.999996" x="21.935495" y="-12.470931" /><rect height="16.129869" id="1694" style="fill:#000000;stroke-width:0.264583" transform="rotate(136.45951)" width="53.999996" x="-29.750267" y="-57.600258" /></g><ellipse cx="210.79829" cy="-21.681339" id="1697" rx="20.256449" ry="18.99502" style="display:inline;fill:#000000;stroke-width:0.306809" /></g><g id="1699" style="display:inline" transform="translate(56.112143,-1.1612432)"><rect height="52.07143" id="1701" style="fill:#000000;stroke-width:0.264583" width="7.363636" x="64.519478" y="9.818182" /></g><g id="1705" style="display:inline" transform="translate(20.537021,-282.03918)"><rect height="7" id="1707" style="display:inline;fill:#000000;stroke-width:0.264583" width="138.73817" x="34.307533" y="290.67154" /><rect height="7" id="1709" style="display:inline;fill:#000000;stroke-width:0.264583" width="68.238068" x="58.204403" y="8.3884745" /></g></svg>