<svg xmlns="http://www.w3.org/2000/svg" height="297mm" id="1710" version="1.1" viewBox="0 0 210 297" width="210mm" ns2:version="1.2 (dc2aedaf03, 2022-05-15)" xml:space="preserve"><defs id="1714" /><g id="1717" style="display:inline" transform="translate(-0.2077924,-0.35064941)"><rect height="2" id="1719" style="display:inline;fill:#000000;stroke-width:0.264583" width="210" x="0.19480543" y="221.66234" /><rect height="2" id="1721" style="display:inline;fill:#000000;stroke-width:0.264583" width="210" x="-0.15584393" y="184.14285" /><rect height="2" id="1723" style="display:inline;fill:#000000;stroke-width:0.264583" width="210" x="-0.50649261" y="146.97403" /><rect height="2" id="1725" style="display:inline;fill:#000000;stroke-width:0.264583" width="210" x="-0.15584493" y="110.85715" /><rect height="2" id="1727" style="fill:#000000;stroke-width:0.264583" width="210" x="-0.1452437" y="73.148499" /></g><g id="1729" style="display:inline" transform="translate(-105.50062,151.14092)"><g id="1731" style="display:inline" transform="translate(104.41893,-111.63773)"><rect height="16.129869" id="1733" style="fill:#000000;stroke-width:0.264583" transform="rotate(47.83112)" width="53.999996" x="21.935495" y="-12.470931" /><rect height="16.129869" id="1735" style="fill:#000000;stroke-width:0.264583" transform="rotate(136.45951)" width="53.999996" x="-29.750267" y="-57.600258" /></g><ellipse cx="145.39841" cy="-21.868208" id="1737" rx="20.256449" ry="18.99502" style="display:inline;fill:#000000;stroke-width:0.306809" /></g><g id="1739" style="display:inline" transform="translate(-11.904815,-1.1917458)"><rect height="52.07143" id="1741" style="fill:#000000;stroke-width:0.264583" width="7.363636" x="64.519478" y="9.818182" /><rect height="86.539383" id="1744" style="display:inline;fill:#000000;stroke-width:0.302506" width="6.942503" x="132.82545" y="48.136482" /></g><g id="1746" style="display:inline" transform="translate(123.70175,-30.010813)"><path d="m 26.457695,88.477592 c 4.272905,3.502911 9.041617,6.255374 13.925735,8.797618 5.006481,2.668322 10.548641,3.54519 16.126132,4.0014 3.172807,0.21659 6.369246,0.12575 9.530091,-0.21902 -5.795688,0.32632 0.320241,0.2793 -4.429546,-13.99073 -0.116475,-0.349936 -0.654981,0.33955 -0.976506,0.520226 -1.664467,0.935331 -3.153214,2.020776 -4.650927,3.200858 -2.371424,1.930416 -4.387059,4.254537 -5.929514,6.898497 -0.927362,1.589619 -1.455917,2.861039 -2.205471,4.516299 -1.576584,3.67258 -2.783502,7.48345 -4.003712,11.28407 -0.70027,2.28335 -1.405062,4.55899 -1.892197,6.89855 -0.394179,2.11069 -0.527934,4.25407 -0.577157,6.39655 -0.02164,1.44102 -0.01442,2.88225 -0.0094,4.32336 0,0 14.999912,-0.0518 14.999912,-0.0518 v 0 c -0.0046,-1.31657 -0.01138,-2.63323 0.0061,-3.94973 0.02426,-1.25769 0.08385,-2.51621 0.28597,-3.75997 0.334039,-1.79758 0.984774,-3.51244 1.468953,-5.27209 1.049777,-3.27042 2.075051,-6.55332 3.405228,-9.72419 0.969377,-2.18417 1.872167,-4.37726 3.843266,-5.86376 0.752319,-0.62828 1.48437,-1.18466 2.337368,-1.67181 0.216504,-0.12365 0.6964,-0.10843 0.65844,-0.35485 -2.271694,-14.74727 1.896491,-14.540085 -4.062751,-14.299179 -2.181649,0.304154 -4.422452,0.256066 -6.614578,0.165457 -3.58112,-0.270674 -7.166017,-0.644734 -10.39364,-2.358655 -1.206559,-0.625644 -3.220786,-1.651304 -4.398817,-2.3368 -2.757128,-1.604369 -5.316906,-3.49596 -7.840978,-5.438809 0,0 -8.601935,12.288478 -8.601935,12.288478 z" id="1748" style="display:inline;fill:#000000;stroke-width:0.264583" /></g><g id="1752" style="display:inline" transform="translate(-37.483662,151.10943)"><g id="1754" style="display:inline" transform="translate(104.41893,-111.63773)"><rect height="16.129869" id="1756" style="fill:#000000;stroke-width:0.264583" transform="rotate(47.83112)" width="53.999996" x="21.935495" y="-12.470931" /><rect height="16.129869" id="1758" style="fill:#000000;stroke-width:0.264583" transform="rotate(136.45951)" width="53.999996" x="-29.750267" y="-57.600258" /></g><ellipse cx="145.24283" cy="-21.235775" id="1760" rx="20.256449" ry="18.99502" style="display:inline;fill:#000000;stroke-width:0.306809" /></g><g id="1762" style="display:inline" transform="translate(56.112143,-1.2232298)"><rect height="52.07143" id="1764" style="fill:#000000;stroke-width:0.264583" width="7.363636" x="64.519478" y="9.818182" /><rect height="86.539383" id="1767" style="display:inline;fill:#000000;stroke-width:0.302506" width="6.942503" x="-3.0388172" y="47.528236" /></g><g id="1769" style="display:inline" transform="translate(0.7012987)"><rect height="7" id="1772" style="display:inline;fill:#000000;stroke-width:0.264583" width="68.238068" x="58.204403" y="8.3884745" /></g></svg>