<svg xmlns="http://www.w3.org/2000/svg" height="297mm" id="2297" version="1.1" viewBox="0 0 210 297" width="210mm" ns2:version="1.2 (dc2aedaf03, 2022-05-15)" xml:space="preserve"><defs id="2301" /><g id="2304" style="display:inline" transform="translate(-0.2077924,-0.35064941)"><rect height="2" id="2306" style="display:inline;fill:#000000;stroke-width:0.264583" width="210" x="0.19480543" y="221.66234" /><rect height="2" id="2308" style="display:inline;fill:#000000;stroke-width:0.264583" width="210" x="-0.15584393" y="184.14285" /><rect height="2" id="2310" style="display:inline;fill:#000000;stroke-width:0.264583" width="210" x="-0.50649261" y="146.97403" /><rect height="2" id="2312" style="display:inline;fill:#000000;stroke-width:0.264583" width="210" x="-0.15584493" y="110.85715" /><rect height="2" id="2314" style="fill:#000000;stroke-width:0.264583" width="210" x="-0.1452437" y="73.148499" /></g><g id="2316" transform="translate(-105.85127,151.84222)"><g id="2318" transform="translate(172.79555,-112.33903)"><rect height="16.129869" id="2320" style="fill:#000000;stroke-width:0.264583" transform="rotate(47.83112)" width="53.999996" x="21.935495" y="-12.470931" /><rect height="16.129869" id="2322" style="fill:#000000;stroke-width:0.264583" transform="rotate(136.45951)" width="53.999996" x="-29.750267" y="-57.600258" /></g><g id="2324" transform="translate(242.25386,-111.86817)"><rect height="16.129869" id="2326" style="fill:#000000;stroke-width:0.264583" transform="rotate(47.83112)" width="53.999996" x="21.935495" y="-12.470931" /><rect height="16.129869" id="2328" style="fill:#000000;stroke-width:0.264583" transform="rotate(136.45951)" width="53.999996" x="-29.750267" y="-57.600258" /></g><ellipse cx="139.35957" cy="-21.659044" id="2330" rx="20.256449" ry="18.99502" style="display:inline;fill:#000000;stroke-width:0.306809" /><ellipse cx="282.8851" cy="-21.918236" id="2332" rx="20.256449" ry="18.99502" style="display:inline;fill:#000000;stroke-width:0.306809" /></g><g id="2334" style="display:inline" transform="translate(55.419867,3.3879667)"><rect height="52.07143" id="2336" style="fill:#000000;stroke-width:0.264583" width="7.363636" x="65.263321" y="6.1150932" /><rect height="52.07143" id="2338" style="fill:#000000;stroke-width:0.264583" width="7.363636" x="134.66853" y="6.0326719" /><rect height="121.49098" id="2342" style="display:inline;fill:#000000;stroke-width:0.358425" width="6.942503" x="-8.7482615" y="6.0530839" /><rect height="121.49098" id="2344" style="display:inline;fill:#000000;stroke-width:0.358425" width="6.942503" x="135.00307" y="8.2669296" /></g><g id="2348"><rect height="7" id="2350" style="display:inline;fill:#000000;stroke-width:0.264583" width="138.73817" x="53.593246" y="9.4507599" /></g></svg>