<svg xmlns="http://www.w3.org/2000/svg" height="297mm" id="2567" version="1.1" viewBox="0 0 210 297" width="210mm" ns2:version="1.2 (dc2aedaf03, 2022-05-15)" xml:space="preserve"><defs id="2571" /><g id="2574" style="display:inline" transform="translate(-0.2077924,-0.35064941)"><rect height="2" id="2576" style="display:inline;fill:#000000;stroke-width:0.264583" width="210" x="0.19480543" y="221.66234" /><rect height="2" id="2578" style="display:inline;fill:#000000;stroke-width:0.264583" width="210" x="-0.15584393" y="184.14285" /><rect height="2" id="2580" style="display:inline;fill:#000000;stroke-width:0.264583" width="210" x="-0.50649261" y="146.97403" /><rect height="2" id="2582" style="display:inline;fill:#000000;stroke-width:0.264583" width="210" x="-0.15584493" y="110.85715" /><rect height="2" id="2584" style="fill:#000000;stroke-width:0.264583" width="210" x="-0.1452437" y="73.148499" /></g><g id="2586" transform="translate(-105.85127,151.84222)"><g id="2588" transform="translate(104.41893,-111.63773)"><rect height="16.129869" id="2590" style="fill:#000000;stroke-width:0.264583" transform="rotate(47.83112)" width="53.999996" x="21.935495" y="-12.470931" /><rect height="16.129869" id="2592" style="fill:#000000;stroke-width:0.264583" transform="rotate(136.45951)" width="53.999996" x="-29.750267" y="-57.600258" /></g><g id="2594" transform="translate(242.60451,-111.86817)"><rect height="16.129869" id="2596" style="fill:#000000;stroke-width:0.264583" transform="rotate(47.83112)" width="53.999996" x="21.935495" y="-12.470931" /><rect height="16.129869" id="2598" style="fill:#000000;stroke-width:0.264583" transform="rotate(136.45951)" width="53.999996" x="-29.750267" y="-57.600258" /></g><ellipse cx="283.13306" cy="-22.910023" id="2600" rx="20.256449" ry="18.99502" style="display:inline;fill:#000000;stroke-width:0.306809" /></g><g id="2602" transform="translate(55.419867,3.0160469)"><rect height="52.07143" id="2604" style="fill:#000000;stroke-width:0.264583" transform="translate(-1.2291667e-6)" width="7.363636" x="134.29871" y="6.3116884" /><rect height="52.07143" id="2606" style="fill:#000000;stroke-width:0.264583" transform="translate(-1.2291667e-6)" width="7.363636" x="-3.3484344" y="6.363822" /><rect height="86.539383" id="2609" style="display:inline;fill:#000000;stroke-width:0.302506" width="6.942503" x="134.50717" y="40.99144" /></g><g id="2611" transform="translate(1.5080236,41.093643)"><path d="m 80.963392,19.248898 c 4.272905,3.502911 9.041617,6.255374 13.925735,8.797618 5.006485,2.668322 10.548643,3.54519 16.126133,4.0014 3.17281,0.21659 6.36925,0.12575 9.53009,-0.21902 -5.79569,0.32632 0.32024,0.2793 -4.42955,-13.99073 -0.11647,-0.349936 -0.65498,0.33955 -0.9765,0.520226 -1.66447,0.935331 -3.15322,2.020776 -4.65093,3.200858 -2.37142,1.930416 -4.38706,4.254537 -5.92951,6.898497 -0.92736,1.589619 -1.45592,2.861039 -2.20547,4.516299 -1.57659,3.67258 -2.783508,7.48345 -4.003716,11.28407 -0.70027,2.28335 -1.405062,4.55899 -1.892197,6.89855 -0.394179,2.11069 -0.527934,4.25407 -0.577157,6.39655 -0.02164,1.44102 -0.01442,2.88225 -0.0094,4.32336 0,0 14.99991,-0.0518 14.99991,-0.0518 v 0 c -0.005,-1.31657 -0.0114,-2.63323 0.006,-3.94973 0.0243,-1.25769 0.0838,-2.51621 0.28597,-3.75997 0.33404,-1.79758 0.98478,-3.51244 1.46896,-5.27209 1.04977,-3.27042 2.07505,-6.55332 3.40522,-9.72419 0.96938,-2.18417 1.87217,-4.37726 3.84327,-5.86376 0.75232,-0.62828 1.48437,-1.18466 2.33737,-1.67181 0.2165,-0.12365 0.6964,-0.10843 0.65844,-0.35485 -2.2717,-14.74727 1.89649,-14.540085 -4.06275,-14.299179 -2.18165,0.304154 -4.42246,0.256066 -6.61458,0.165457 -3.58112,-0.270674 -7.16602,-0.644734 -10.39364,-2.358655 -1.20656,-0.625644 -3.220788,-1.651304 -4.398819,-2.3368 -2.757128,-1.604369 -5.316906,-3.4959596 -7.840978,-5.4388086 0,0 -8.601935,12.2884776 -8.601935,12.2884776 z" id="2613" style="fill:#000000;stroke-width:0.264583" /></g><g id="2617" transform="translate(19.987013,-281.36602)"><rect height="7" id="2619" style="fill:#000000;stroke-width:0.264583" width="138.73817" x="34.307533" y="290.67154" /></g></svg>