<svg xmlns="http://www.w3.org/2000/svg" height="297mm" id="2675" version="1.1" viewBox="0 0 210 297" width="210mm" ns2:version="1.2 (dc2aedaf03, 2022-05-15)" xml:space="preserve"><defs id="2679" /><g id="2682" style="display:inline" transform="translate(-0.2077924,-0.35064941)"><rect height="2" id="2684" style="display:inline;fill:#000000;stroke-width:0.264583" width="210" x="0.19480543" y="221.66234" /><rect height="2" id="2686" style="display:inline;fill:#000000;stroke-width:0.264583" width="210" x="-0.15584393" y="184.14285" /><rect height="2" id="2688" style="display:inline;fill:#000000;stroke-width:0.264583" width="210" x="-0.50649261" y="146.97403" /><rect height="2" id="2690" style="display:inline;fill:#000000;stroke-width:0.264583" width="210" x="-0.15584493" y="110.85715" /><rect height="2" id="2692" style="fill:#000000;stroke-width:0.264583" width="210" x="-0.1452437" y="73.148499" /></g><g id="2694" transform="translate(-105.85127,151.84222)"><g id="2696" transform="translate(104.41893,-111.63773)"><rect height="16.129869" id="2698" style="fill:#000000;stroke-width:0.264583" transform="rotate(47.83112)" width="53.999996" x="21.935495" y="-12.470931" /><rect height="16.129869" id="2700" style="fill:#000000;stroke-width:0.264583" transform="rotate(136.45951)" width="53.999996" x="-29.750267" y="-57.600258" /></g><g id="2702" transform="translate(242.60451,-111.86817)"><rect height="16.129869" id="2704" style="fill:#000000;stroke-width:0.264583" transform="rotate(47.83112)" width="53.999996" x="21.935495" y="-12.470931" /><rect height="16.129869" id="2706" style="fill:#000000;stroke-width:0.264583" transform="rotate(136.45951)" width="53.999996" x="-29.750267" y="-57.600258" /></g><ellipse cx="282.63715" cy="-22.662077" id="2708" rx="20.256449" ry="18.99502" style="display:inline;fill:#000000;stroke-width:0.306809" /><ellipse cx="213.21213" cy="-22.662075" id="2710" rx="20.256449" ry="18.99502" style="display:inline;fill:#000000;stroke-width:0.306809" /></g><g id="2712" transform="translate(55.419867,3.0160469)"><rect height="52.07143" id="2714" style="fill:#000000;stroke-width:0.264583" transform="translate(-1.2291667e-6)" width="7.363636" x="134.29871" y="6.3116884" /><rect height="52.07143" id="2716" style="fill:#000000;stroke-width:0.264583" transform="translate(-1.2291667e-6)" width="7.363636" x="-3.3484344" y="6.363822" /><rect height="86.539383" id="2719" style="display:inline;fill:#000000;stroke-width:0.302506" width="6.942503" x="134.50717" y="38.26403" /><rect height="117.78065" id="2721" style="display:inline;fill:#000000;stroke-width:0.35291" width="6.942503" x="65.330093" y="9.2542877" /></g><g id="2725" transform="translate(19.987013,-281.36602)"><rect height="7" id="2727" style="fill:#000000;stroke-width:0.264583" width="138.73817" x="34.307533" y="290.67154" /></g></svg>