<svg xmlns="http://www.w3.org/2000/svg" height="297mm" id="2902" version="1.1" viewBox="0 0 210 297" width="210mm" ns2:version="1.2 (dc2aedaf03, 2022-05-15)" xml:space="preserve"><defs id="2906" /><g id="2909" style="display:inline" transform="translate(-0.2077924,-0.35064941)"><rect height="2" id="2911" style="display:inline;fill:#000000;stroke-width:0.264583" width="210" x="0.19480543" y="221.66234" /><rect height="2" id="2913" style="display:inline;fill:#000000;stroke-width:0.264583" width="210" x="-0.15584393" y="184.14285" /><rect height="2" id="2915" style="display:inline;fill:#000000;stroke-width:0.264583" width="210" x="-0.50649261" y="146.97403" /><rect height="2" id="2917" style="display:inline;fill:#000000;stroke-width:0.264583" width="210" x="-0.15584493" y="110.85715" /><rect height="2" id="2919" style="fill:#000000;stroke-width:0.264583" width="210" x="-0.1452437" y="73.148499" /></g><g id="2921" transform="translate(-105.85127,151.84222)"><g id="2923" transform="translate(104.41893,-111.63773)"><rect height="16.129869" id="2925" style="fill:#000000;stroke-width:0.264583" transform="rotate(47.83112)" width="53.999996" x="21.935495" y="-12.470931" /><rect height="16.129869" id="2927" style="fill:#000000;stroke-width:0.264583" transform="rotate(136.45951)" width="53.999996" x="-29.750267" y="-57.600258" /></g><g id="2929" transform="translate(242.60451,-111.86817)"><rect height="16.129869" id="2931" style="fill:#000000;stroke-width:0.264583" transform="rotate(47.83112)" width="53.999996" x="21.935495" y="-12.470931" /><rect height="16.129869" id="2933" style="fill:#000000;stroke-width:0.264583" transform="rotate(136.45951)" width="53.999996" x="-29.750267" y="-57.600258" /></g><g id="2935" transform="translate(173.12809,-111.26581)"><rect height="16.129869" id="2937" style="fill:#000000;stroke-width:0.264583" transform="rotate(47.83112)" width="53.999996" x="21.935495" y="-12.470931" /><rect height="16.129869" id="2939" style="fill:#000000;stroke-width:0.264583" transform="rotate(136.45951)" width="53.999996" x="-29.750267" y="-57.600258" /></g><ellipse cx="144.28299" cy="-22.166178" id="2941" rx="20.256449" ry="18.99502" style="display:inline;fill:#000000;stroke-width:0.306809" /></g><g id="2943" transform="translate(55.419867,3.0160469)"><rect height="52.07143" id="2945" style="fill:#000000;stroke-width:0.264583" transform="translate(-1.2291667e-6)" width="7.363636" x="134.29871" y="6.3116884" /><rect height="52.07143" id="2947" style="fill:#000000;stroke-width:0.264583" transform="translate(-1.2291667e-6)" width="7.363636" x="-3.3484344" y="6.363822" /><rect height="52.07143" id="2949" style="fill:#000000;stroke-width:0.264583" width="7.363636" x="65.367477" y="7.1484332" /><rect height="86.539383" id="2952" style="display:inline;fill:#000000;stroke-width:0.302506" width="6.942503" x="-3.1031482" y="41.983234" /></g><g id="2954" transform="translate(1.5080236,41.093643)" /><g id="2959" transform="translate(19.987013,-281.36602)"><rect height="7" id="2961" style="fill:#000000;stroke-width:0.264583" width="138.73817" x="34.307533" y="290.67154" /></g></svg>