<?xml version="1.0" encoding="UTF-8" standalone="no"?>
<!-- Created with Inkscape (http://www.inkscape.org/) -->

<svg
   width="210mm"
   height="297mm"
   viewBox="0 0 210 297"
   version="1.1"
   id="svg5"
   sodipodi:docname="7_4.svg"
   inkscape:version="1.2 (dc2aedaf03, 2022-05-15)"
   xml:space="preserve"
   xmlns:inkscape="http://www.inkscape.org/namespaces/inkscape"
   xmlns:sodipodi="http://sodipodi.sourceforge.net/DTD/sodipodi-0.dtd"
   xmlns="http://www.w3.org/2000/svg"
   xmlns:svg="http://www.w3.org/2000/svg"
   xmlns:rdf="http://www.w3.org/1999/02/22-rdf-syntax-ns#"
   xmlns:cc="http://creativecommons.org/ns#"
   xmlns:dc="http://purl.org/dc/elements/1.1/"><sodipodi:namedview
     id="namedview12"
     pagecolor="#ffffff"
     bordercolor="#000000"
     borderopacity="0.25"
     inkscape:showpageshadow="2"
     inkscape:pageopacity="0.0"
     inkscape:pagecheckerboard="0"
     inkscape:deskcolor="#d1d1d1"
     inkscape:document-units="mm"
     showgrid="false"
     inkscape:zoom="1.0670983"
     inkscape:cx="392.65361"
     inkscape:cy="304.56426"
     inkscape:window-width="1920"
     inkscape:window-height="1027"
     inkscape:window-x="-8"
     inkscape:window-y="-8"
     inkscape:window-maximized="1"
     inkscape:current-layer="svg5"
     showguides="true"><sodipodi:guide
       position="35.061548,223.86086"
       orientation="1,0"
       id="guide1126"
       inkscape:locked="false" /><sodipodi:guide
       position="103.67662,223.86086"
       orientation="1,0"
       id="guide1128"
       inkscape:locked="false" /><sodipodi:guide
       position="173.0457,223.86086"
       orientation="1,0"
       id="guide1130"
       inkscape:locked="false" /></sodipodi:namedview><title
     id="title940">7_3</title><defs
     id="defs2" /><metadata
     id="metadata938"><rdf:RDF><cc:Work
         rdf:about=""><dc:title>7_3</dc:title></cc:Work></rdf:RDF></metadata><g
     id="layer1"
     style="display:inline"
     transform="translate(-0.2077924,-0.35064941)"
     inkscape:label="staff"><rect
       style="display:inline;fill:#000000;stroke-width:0.264583"
       id="rect707-3-8"
       width="210"
       height="2"
       x="0.19480543"
       y="221.66234"
       inkscape:label="5" /><rect
       style="display:inline;fill:#000000;stroke-width:0.264583"
       id="rect707-3-8-4"
       width="210"
       height="2"
       x="-0.15584393"
       y="184.14285"
       inkscape:label="4" /><rect
       style="display:inline;fill:#000000;stroke-width:0.264583"
       id="rect707-3"
       width="210"
       height="2"
       x="-0.50649261"
       y="146.97403"
       inkscape:label="3" /><rect
       style="display:inline;fill:#000000;stroke-width:0.264583"
       id="rect707-3-8-4-4"
       width="210"
       height="2"
       x="-0.15584493"
       y="110.85715"
       inkscape:label="2" /><rect
       style="fill:#000000;stroke-width:0.264583"
       id="rect707"
       width="210"
       height="2"
       x="-0.1452437"
       y="73.148499"
       inkscape:label="1" /></g><g
     id="g836"
     inkscape:label="notes"
     transform="translate(-105.85127,151.84222)"><g
       id="g779-3-1"
       inkscape:label="x"
       transform="translate(104.41893,-111.63773)"><rect
         style="fill:#000000;stroke-width:0.264583"
         id="rect753-1-6"
         width="53.999996"
         height="16.129869"
         x="21.935495"
         y="-12.470931"
         transform="rotate(47.83112)"
         inkscape:label="r2" /><rect
         style="fill:#000000;stroke-width:0.264583"
         id="rect753-4-3-3"
         width="53.999996"
         height="16.129869"
         x="-29.750267"
         y="-57.600258"
         transform="rotate(136.45951)"
         inkscape:label="r1" /></g><g
       id="g779-3-1-3"
       inkscape:label="x"
       transform="translate(242.60451,-111.86817)"><rect
         style="fill:#000000;stroke-width:0.264583"
         id="rect753-1-6-2"
         width="53.999996"
         height="16.129869"
         x="21.935495"
         y="-12.470931"
         transform="rotate(47.83112)"
         inkscape:label="r2" /><rect
         style="fill:#000000;stroke-width:0.264583"
         id="rect753-4-3-3-1"
         width="53.999996"
         height="16.129869"
         x="-29.750267"
         y="-57.600258"
         transform="rotate(136.45951)"
         inkscape:label="r1" /></g><g
       id="g779-3-1-3-5"
       inkscape:label="x"
       transform="translate(173.12809,-111.26581)"><rect
         style="fill:#000000;stroke-width:0.264583"
         id="rect753-1-6-2-0"
         width="53.999996"
         height="16.129869"
         x="21.935495"
         y="-12.470931"
         transform="rotate(47.83112)"
         inkscape:label="r2" /><rect
         style="fill:#000000;stroke-width:0.264583"
         id="rect753-4-3-3-1-6"
         width="53.999996"
         height="16.129869"
         x="-29.750267"
         y="-57.600258"
         transform="rotate(136.45951)"
         inkscape:label="r1" /></g><ellipse
       style="display:inline;fill:#000000;stroke-width:0.306809"
       id="path833-6-5"
       cx="213.46007"
       cy="-22.414125"
       rx="20.256449"
       ry="18.99502"
       inkscape:label="o" /><ellipse
       style="display:inline;fill:#000000;stroke-width:0.306809"
       id="path833-6-5-7"
       cx="144.28299"
       cy="-22.166178"
       rx="20.256449"
       ry="18.99502"
       inkscape:label="o" /></g><g
     id="g852"
     inkscape:label="stems"
     transform="translate(55.419867,3.0160469)"><rect
       style="fill:#000000;stroke-width:0.264583"
       id="rect849"
       width="7.363636"
       height="52.07143"
       x="134.29871"
       y="6.3116884"
       inkscape:label="s"
       transform="translate(-1.2291667e-6)" /><rect
       style="fill:#000000;stroke-width:0.264583"
       id="rect849-8"
       width="7.363636"
       height="52.07143"
       x="-3.3484344"
       y="6.363822"
       inkscape:label="s"
       transform="translate(-1.2291667e-6)" /><rect
       style="fill:#000000;stroke-width:0.264583"
       id="rect849-8-3"
       width="7.363636"
       height="52.07143"
       x="65.367477"
       y="7.1484332"
       inkscape:label="s" /><rect
       style="display:none;fill:#000000;stroke-width:0.264583"
       id="rect906"
       width="6.942503"
       height="66.201721"
       x="99.676277"
       y="166.66063"
       inkscape:label="m"
       transform="translate(-55.419867,-3.0160469)" /><rect
       style="display:inline;fill:#000000;stroke-width:0.302506"
       id="rect906-4-3-1"
       width="6.942503"
       height="86.539383"
       x="65.578049"
       y="39.007874"
       inkscape:label="l" /><rect
       style="display:inline;fill:#000000;stroke-width:0.302506"
       id="rect906-4-3-1-5"
       width="6.942503"
       height="86.539383"
       x="-3.1031482"
       y="41.983234"
       inkscape:label="l" /></g><g
     id="g980"
     inkscape:label="rests"
     transform="translate(1.5080236,41.093643)"><path
       style="display:none;fill:#000000;stroke-width:0.264583"
       id="path977"
       d="m 80.963392,19.248898 c 4.272905,3.502911 9.041617,6.255374 13.925735,8.797618 5.006485,2.668322 10.548643,3.54519 16.126133,4.0014 3.17281,0.21659 6.36925,0.12575 9.53009,-0.21902 -5.79569,0.32632 0.32024,0.2793 -4.42955,-13.99073 -0.11647,-0.349936 -0.65498,0.33955 -0.9765,0.520226 -1.66447,0.935331 -3.15322,2.020776 -4.65093,3.200858 -2.37142,1.930416 -4.38706,4.254537 -5.92951,6.898497 -0.92736,1.589619 -1.45592,2.861039 -2.20547,4.516299 -1.57659,3.67258 -2.783508,7.48345 -4.003716,11.28407 -0.70027,2.28335 -1.405062,4.55899 -1.892197,6.89855 -0.394179,2.11069 -0.527934,4.25407 -0.577157,6.39655 -0.02164,1.44102 -0.01442,2.88225 -0.0094,4.32336 0,0 14.99991,-0.0518 14.99991,-0.0518 v 0 c -0.005,-1.31657 -0.0114,-2.63323 0.006,-3.94973 0.0243,-1.25769 0.0838,-2.51621 0.28597,-3.75997 0.33404,-1.79758 0.98478,-3.51244 1.46896,-5.27209 1.04977,-3.27042 2.07505,-6.55332 3.40522,-9.72419 0.96938,-2.18417 1.87217,-4.37726 3.84327,-5.86376 0.75232,-0.62828 1.48437,-1.18466 2.33737,-1.67181 0.2165,-0.12365 0.6964,-0.10843 0.65844,-0.35485 -2.2717,-14.74727 1.89649,-14.540085 -4.06275,-14.299179 -2.18165,0.304154 -4.42246,0.256066 -6.61458,0.165457 -3.58112,-0.270674 -7.16602,-0.644734 -10.39364,-2.358655 -1.20656,-0.625644 -3.220788,-1.651304 -4.398819,-2.3368 -2.757128,-1.604369 -5.316906,-3.4959596 -7.840978,-5.4388086 0,0 -8.601935,12.2884776 -8.601935,12.2884776 z"
       inkscape:label="3rest" /><path
       style="display:none;fill:#000000;stroke-width:0.264583"
       id="path356"
       d="m 86.707408,58.25892 c 8.480045,10.489885 20.114562,17.7874 28.993202,27.892788 -2.31351,-1.750761 1.64354,-9.552935 -3.29827,-5.662834 -6.26183,3.784731 -13.244611,6.895274 -18.375551,12.178163 -3.753467,5.829473 0.479136,12.796693 6.326441,15.069123 3.39023,1.89151 11.20634,5.38933 12.04255,5.85806 -5.25589,-2.55543 3.70086,-12.07067 -2.41413,-10.46898 -9.34442,2.14329 -19.104382,6.77136 -23.342396,15.9163 -3.707466,6.67211 -1.060739,15.99045 6.104205,19.06674 5.016609,2.40407 12.047331,5.63501 16.823231,4.8971 0.99201,-4.24625 4.24481,-10.1495 2.46069,-13.67704 -2.79647,-2.5723 -12.455265,-1.1324 -10.86814,-5.57315 5.14445,-6.34255 14.54714,-4.74342 20.77885,-9.07409 3.16482,-4.03563 3.51409,-11.97676 -2.14899,-13.96268 -4.01058,-1.354407 -9.65565,-6.564811 -12.89904,-4.998407 2.5256,2.250457 -3.55143,8.250697 0.84882,5.038957 6.47802,-4.805457 14.56318,-7.421913 20.33927,-13.144885 3.99798,-5.711254 -0.46132,-12.114065 -5.13503,-15.637991 -7.29473,-7.19529 -15.40824,-13.505271 -22.63394,-20.773617 -5.504021,-0.701862 -8.704432,5.486084 -13.601772,7.056443 z"
       inkscape:label="qrest"
       transform="translate(41.847654,94.628476)" /></g><g
     id="g993"
     inkscape:label="tail"
     style="display:none"><path
       style="fill:#000000;stroke-width:0.264583"
       id="path990"
       d="m 68.693701,17.254524 c 1.078296,-0.199069 2.174653,-0.461513 3.277463,-0.429566 0.739256,-0.04383 1.316529,0.29444 1.948368,0.610804 0.363847,0.234092 0.769278,0.398772 1.129254,0.639068 0.211334,0.141073 -0.225504,-0.200877 0.120341,0.226111 0.53214,0.857214 0.794589,1.877984 1.098968,2.836576 0.388622,1.389783 0.45938,2.833767 0.512884,4.267312 -0.05195,1.247563 -0.341855,2.47166 -0.517033,3.706579 -0.418102,2.718083 0.278093,4.12379 2.381642,5.850742 1.388874,1.061331 3.022761,1.478023 4.726929,1.659974 1.021839,0.08388 2.047949,0.0715 3.072212,0.06659 0.148323,-7.94e-4 0.296646,-0.0016 0.444968,-0.0026 0,0 -0.04059,-6.99988 -0.04059,-6.99988 v 0 c -0.146055,7.94e-4 -0.292108,0.0016 -0.438163,0.0026 -0.781616,0.0038 -1.564341,0.01561 -2.344944,-0.03224 -0.340469,-0.0285 -0.681577,-0.04967 -1.013336,-0.13295 -0.09288,-0.07332 -0.161261,-0.234905 -0.278646,-0.219953 -0.08949,0.0114 0.09632,0.154278 0.126323,0.239357 0.384318,1.089795 0.190003,0.449681 0.205507,1.419702 0.0047,0.29346 0.07264,-1.240084 0.08981,-0.875903 0.229293,-1.64645 0.632343,-3.278558 0.580091,-4.952614 C 83.693519,23.068728 83.539497,20.99569 82.935548,19.005627 82.33714,17.144326 81.733189,15.229761 80.452333,13.708834 79.42638,12.555789 78.411544,11.840271 77.041606,11.1706 75.422898,10.366859 73.737616,9.7754683 71.900939,9.8253436 c -1.653402,0.040089 -3.293517,0.2598714 -4.904983,0.6382164 0,0 1.697749,6.790998 1.697749,6.790998 z" /></g><g
     id="g1228"
     inkscape:label="bars"
     transform="translate(19.987013,-281.36602)"><rect
       style="fill:#000000;stroke-width:0.264583"
       id="rect1230"
       width="138.73817"
       height="7"
       x="34.307533"
       y="290.67154"
       inkscape:label="bar_long" /><rect
       style="display:none;fill:#000000;stroke-width:0.264583"
       id="rect1225"
       width="68.238068"
       height="7"
       x="35.061546"
       y="280.49237"
       inkscape:label="bar_short" /></g></svg>
