<svg xmlns="http://www.w3.org/2000/svg" height="297mm" id="3150" version="1.1" viewBox="0 0 210 297" width="210mm" ns2:version="1.2 (dc2aedaf03, 2022-05-15)" xml:space="preserve"><defs id="3154" /><g id="3157" style="display:inline" transform="translate(-0.2077924,-0.35064941)"><rect height="2" id="3159" style="display:inline;fill:#000000;stroke-width:0.264583" width="210" x="0.19480543" y="221.66234" /><rect height="2" id="3161" style="display:inline;fill:#000000;stroke-width:0.264583" width="210" x="-0.15584393" y="184.14285" /><rect height="2" id="3163" style="display:inline;fill:#000000;stroke-width:0.264583" width="210" x="-0.50649261" y="146.97403" /><rect height="2" id="3165" style="display:inline;fill:#000000;stroke-width:0.264583" width="210" x="-0.15584493" y="110.85715" /><rect height="2" id="3167" style="fill:#000000;stroke-width:0.264583" width="210" x="-0.1452437" y="73.148499" /></g><g id="3169" transform="translate(-105.85127,151.84222)"><g id="3171" transform="translate(104.41893,-111.63773)"><rect height="16.129869" id="3173" style="fill:#000000;stroke-width:0.264583" transform="rotate(47.83112)" width="53.999996" x="21.935495" y="-12.470931" /><rect height="16.129869" id="3175" style="fill:#000000;stroke-width:0.264583" transform="rotate(136.45951)" width="53.999996" x="-29.750267" y="-57.600258" /></g><g id="3177" transform="translate(242.60451,-111.86817)"><rect height="16.129869" id="3179" style="fill:#000000;stroke-width:0.264583" transform="rotate(47.83112)" width="53.999996" x="21.935495" y="-12.470931" /><rect height="16.129869" id="3181" style="fill:#000000;stroke-width:0.264583" transform="rotate(136.45951)" width="53.999996" x="-29.750267" y="-57.600258" /></g><g id="3183" transform="translate(173.12809,-111.26581)"><rect height="16.129869" id="3185" style="fill:#000000;stroke-width:0.264583" transform="rotate(47.83112)" width="53.999996" x="21.935495" y="-12.470931" /><rect height="16.129869" id="3187" style="fill:#000000;stroke-width:0.264583" transform="rotate(136.45951)" width="53.999996" x="-29.750267" y="-57.600258" /></g><ellipse cx="283.13306" cy="-22.910023" id="3189" rx="20.256449" ry="18.99502" style="display:inline;fill:#000000;stroke-width:0.306809" /><ellipse cx="213.46007" cy="-22.414125" id="3191" rx="20.256449" ry="18.99502" style="display:inline;fill:#000000;stroke-width:0.306809" /></g><g id="3193" transform="translate(55.419867,3.0160469)"><rect height="52.07143" id="3195" style="fill:#000000;stroke-width:0.264583" transform="translate(-1.2291667e-6)" width="7.363636" x="134.29871" y="6.3116884" /><rect height="52.07143" id="3197" style="fill:#000000;stroke-width:0.264583" transform="translate(-1.2291667e-6)" width="7.363636" x="-3.3484344" y="6.363822" /><rect height="52.07143" id="3199" style="fill:#000000;stroke-width:0.264583" width="7.363636" x="65.367477" y="7.1484332" /><rect height="86.539383" id="3202" style="display:inline;fill:#000000;stroke-width:0.302506" width="6.942503" x="134.50717" y="40.99144" /><rect height="86.539383" id="3204" style="display:inline;fill:#000000;stroke-width:0.302506" width="6.942503" x="65.578049" y="39.007874" /></g><g id="3206" transform="translate(1.5080236,41.093643)" /><g id="3211" transform="translate(19.987013,-281.36602)"><rect height="7" id="3213" style="fill:#000000;stroke-width:0.264583" width="138.73817" x="34.307533" y="290.67154" /></g></svg>