<svg xmlns="http://www.w3.org/2000/svg" height="297mm" id="3215" version="1.1" viewBox="0 0 210 297" width="210mm" ns2:version="1.2 (dc2aedaf03, 2022-05-15)" xml:space="preserve"><defs id="3219" /><g id="3222" style="display:inline" transform="translate(-0.2077924,-0.35064941)"><rect height="2" id="3224" style="display:inline;fill:#000000;stroke-width:0.264583" width="210" x="0.19480543" y="221.66234" /><rect height="2" id="3226" style="display:inline;fill:#000000;stroke-width:0.264583" width="210" x="-0.15584393" y="184.14285" /><rect height="2" id="3228" style="display:inline;fill:#000000;stroke-width:0.264583" width="210" x="-0.50649261" y="146.97403" /><rect height="2" id="3230" style="display:inline;fill:#000000;stroke-width:0.264583" width="210" x="-0.15584493" y="110.85715" /><rect height="2" id="3232" style="fill:#000000;stroke-width:0.264583" width="210" x="-0.1452437" y="73.148499" /></g><g id="3234" transform="translate(-105.85127,151.84222)"><g id="3236" transform="translate(104.41893,-111.63773)"><rect height="16.129869" id="3238" style="fill:#000000;stroke-width:0.264583" transform="rotate(47.83112)" width="53.999996" x="21.935495" y="-12.470931" /><rect height="16.129869" id="3240" style="fill:#000000;stroke-width:0.264583" transform="rotate(136.45951)" width="53.999996" x="-29.750267" y="-57.600258" /></g><g id="3242" transform="translate(242.60451,-111.86817)"><rect height="16.129869" id="3244" style="fill:#000000;stroke-width:0.264583" transform="rotate(47.83112)" width="53.999996" x="21.935495" y="-12.470931" /><rect height="16.129869" id="3246" style="fill:#000000;stroke-width:0.264583" transform="rotate(136.45951)" width="53.999996" x="-29.750267" y="-57.600258" /></g><g id="3248" transform="translate(173.12809,-111.26581)"><rect height="16.129869" id="3250" style="fill:#000000;stroke-width:0.264583" transform="rotate(47.83112)" width="53.999996" x="21.935495" y="-12.470931" /><rect height="16.129869" id="3252" style="fill:#000000;stroke-width:0.264583" transform="rotate(136.45951)" width="53.999996" x="-29.750267" y="-57.600258" /></g><ellipse cx="283.13306" cy="-22.910023" id="3254" rx="20.256449" ry="18.99502" style="display:inline;fill:#000000;stroke-width:0.306809" /><ellipse cx="144.28299" cy="-22.166178" id="3256" rx="20.256449" ry="18.99502" style="display:inline;fill:#000000;stroke-width:0.306809" /></g><g id="3258" transform="translate(55.419867,3.0160469)"><rect height="52.07143" id="3260" style="fill:#000000;stroke-width:0.264583" transform="translate(-1.2291667e-6)" width="7.363636" x="134.29871" y="6.3116884" /><rect height="52.07143" id="3262" style="fill:#000000;stroke-width:0.264583" transform="translate(-1.2291667e-6)" width="7.363636" x="-3.3484344" y="6.363822" /><rect height="52.07143" id="3264" style="fill:#000000;stroke-width:0.264583" width="7.363636" x="65.367477" y="7.1484332" /><rect height="86.539383" id="3267" style="display:inline;fill:#000000;stroke-width:0.302506" width="6.942503" x="134.50717" y="40.99144" /><rect height="86.539383" id="3269" style="display:inline;fill:#000000;stroke-width:0.302506" width="6.942503" x="-3.1031482" y="41.983234" /></g><g id="3271" transform="translate(1.5080236,41.093643)" /><g id="3276" transform="translate(19.987013,-281.36602)"><rect height="7" id="3278" style="fill:#000000;stroke-width:0.264583" width="138.73817" x="34.307533" y="290.67154" /></g></svg>